<svg id="svg" version="1.1" xmlns="http://www.w3.org/2000/svg" xmlns:xlink="http://www.w3.org/1999/xlink" width="400" height="400" viewBox="0 0 400 400"><g id="svgg"><path transform="matrix(1.4,0,0,1.2,-66.4,-39.2)" id="path0" d="M 145.8 40.2 C 125.2 48.6 109.2 59.1 102.3 68.9 C 101.2 70.5 99 74.4 99 75 C 98.9 75.2 98.8 75.5 98.6 75.7 C 98.4 75.9 98.4 76.1 98.5 76.1 C 98.6 76.1 98.6 76.3 98.3 76.6 C 98.1 76.9 98 77.2 98.1 77.3 C 98.2 77.4 98.2 77.7 98 78 C 97.7 78.2 97.7 78.4 97.8 78.4 C 98 78.4 97.9 78.7 97.7 78.9 C 97.5 79.2 97.4 79.5 97.5 79.7 C 97.6 79.9 97.5 80.2 97.3 80.3 C 97.1 80.4 97 80.7 97.1 81 C 97.2 81.2 97.1 81.5 97 81.6 C 96.8 81.7 96.7 82 96.8 82.3 C 96.9 82.5 96.8 82.8 96.6 83 C 96.4 83.1 96.3 83.5 96.4 83.8 C 96.5 84.1 96.5 84.5 96.3 84.6 C 96.1 84.7 96 85.1 96.1 85.5 C 96.2 85.8 96.1 86.2 95.9 86.3 C 95.8 86.4 95.6 86.9 95.7 87.4 C 95.7 87.9 95.6 88.5 95.5 88.9 C 95.4 89.2 95.3 89.8 95.4 90.3 C 95.5 90.7 95.4 91.2 95.3 91.3 C 95.1 91.4 95 92.3 95 93.4 C 95 94.4 95 95.5 94.8 95.9 C 94.5 96.6 94.9 106.9 95.3 109.7 C 95.4 110.7 95.4 111.5 95.3 111.6 C 94.9 111.9 93.3 114.4 93.2 114.9 C 93.2 115.1 92.9 115.6 92.7 116 C 92.5 116.4 92.4 116.8 92.5 116.8 C 92.6 116.8 92.4 117.1 92.1 117.6 C 91.8 118.1 91.7 118.5 91.8 118.7 C 91.9 118.8 91.8 119.1 91.6 119.3 C 91.4 119.6 91.4 119.8 91.5 119.8 C 91.6 119.8 91.6 120 91.3 120.3 C 91.1 120.6 91 120.9 91.1 121 C 91.2 121.1 91.2 121.4 91 121.6 C 90.8 121.9 90.7 122.3 90.8 122.6 C 90.9 122.9 90.8 123.2 90.6 123.3 C 90.4 123.4 90.3 123.9 90.4 124.4 C 90.4 124.9 90.4 125.5 90.2 125.7 C 90.1 125.9 90 126.6 90 127.3 C 90.1 127.9 90 128.5 89.9 128.6 C 89.2 129.4 89.9 148.6 90.7 149.6 C 90.9 149.8 90.9 150.1 90.8 150.2 C 90.6 150.4 88.6 148.8 85.8 146.3 C 84 144.6 82.7 143.6 82.5 143.8 C 81.3 145.2 75.5 169.3 73.9 179.8 C 72.4 189.7 73.1 218.8 75 223.6 C 75.2 224.1 76.8 224.8 82.4 226.7 C 90.9 229.6 89.7 228.9 92.3 232.8 C 94.5 235.9 94.8 237 94.2 238.5 C 94.1 238.8 94 239.2 94 239.5 C 94.1 239.7 94 240.2 93.9 240.4 C 93.8 240.7 93.6 241.3 93.5 241.8 C 93.4 242.2 93.3 242.6 93.3 242.7 C 93.3 242.7 93.2 242.9 93.2 243.1 C 92.6 247 83.7 253.1 73.1 256.7 C 70.1 257.7 69.3 258.1 69.4 258.5 C 69.6 259 95.6 305.9 97.4 308.9 C 99.6 312.5 107.7 327.3 107.8 327.7 C 107.8 327.9 107.9 328.1 108 328.1 C 108.1 328.1 109.8 331.1 111.8 334.8 L 115.5 341.4 L 117.5 341.2 C 121 340.9 120.5 341.6 123.3 331.1 C 124.7 325.9 125.9 321.1 126.1 320.5 C 126.5 319 122.7 316.8 161.9 341.4 C 180.9 353.4 196.6 363.1 196.9 363 C 197.1 362.9 212.8 353 231.8 341.1 C 250.8 329.2 266.4 319.4 266.6 319.4 C 266.7 319.4 267.2 320.7 267.5 322.2 C 272.9 342.9 272 340.8 275.9 341.3 L 277.6 341.5 L 278.7 339.5 C 279.3 338.5 279.9 337.5 280.1 337.4 C 280.3 337.2 280.4 337.1 280.2 337.1 C 280 337.1 281.2 334.9 281.6 334.4 C 281.7 334.3 281.9 334.1 281.9 333.9 C 281.9 333.7 285.1 328 288.9 321.2 C 307.1 288.7 323.6 258.9 323.7 258.5 C 323.8 258.2 322.4 257.5 319.5 256.5 C 309.1 252.6 303.6 249.2 301 245.1 C 300.5 244.2 300.1 243.4 300.2 243.4 C 300.3 243.4 300.2 243.1 299.9 242.7 C 299.7 242.3 299.6 241.8 299.6 241.6 C 299.6 241.5 299.5 241.2 299.3 241 C 299.2 240.7 299.1 240.4 299.2 240.3 C 299.3 240.2 299.3 239.9 299.2 239.5 C 298.3 237.2 298.6 235.9 301 232.5 L 303.3 229.3 L 308.1 227.6 C 310.7 226.7 314 225.6 315.5 225 L 318.2 224.1 L 318.8 219.8 C 322 194.7 320 174 311.9 147.6 C 310.6 143.6 310.4 143.3 309.1 144.6 C 303.5 150 302.2 150.9 302.7 149 C 303.4 146.3 304 131.2 303.4 130.3 C 303.3 130.1 303.2 129.3 303.3 128.4 C 303.3 127.5 303.2 126.7 303 126.6 C 302.9 126.5 302.8 126.1 302.9 125.8 C 303 125.4 303 124.8 302.8 124.5 C 302.7 124.2 302.6 123.7 302.6 123.4 C 302.7 123.1 302.5 122.7 302.4 122.6 C 302.2 122.5 302.1 122.2 302.2 121.9 C 302.3 121.6 302.2 121.2 302 121 C 301.8 120.7 301.8 120.4 301.9 120.3 C 302 120.2 301.9 119.9 301.7 119.6 C 301.4 119.3 301.4 119.1 301.5 119.1 C 301.6 119.1 301.6 118.9 301.3 118.6 C 301.1 118.3 301 118.1 301.2 118.1 C 301.3 118.1 301.2 117.9 301 117.6 C 300.8 117.3 300.7 117.1 300.8 117.1 C 300.9 117.1 300.8 116.8 300.6 116.3 C 300.4 115.9 300.2 115.5 300.3 115.4 C 300.3 115.2 299.6 114.1 298.8 112.9 C 297.7 111.3 297.4 110.6 297.7 110.3 C 297.9 110 297.9 109.3 297.8 108.7 C 297.7 108 297.8 107.4 297.9 107.3 C 298.3 107.1 298.5 93.6 298.1 93 C 298 92.8 297.9 92 297.9 91.2 C 297.9 90.4 297.8 89.7 297.7 89.6 C 297.5 89.5 297.5 89.1 297.6 88.8 C 297.7 88.4 297.6 87.8 297.5 87.5 C 297.3 87.2 297.3 86.6 297.3 86.2 C 297.3 85.8 297.2 85.4 297 85.3 C 296.9 85.2 296.8 84.8 296.9 84.5 C 297 84.1 296.9 83.7 296.7 83.6 C 296.5 83.5 296.4 83.2 296.5 82.9 C 296.7 82.6 296.6 82.2 296.4 82 C 296.2 81.7 296.1 81.4 296.2 81.3 C 296.3 81.2 296.2 80.9 296 80.6 C 295.8 80.3 295.7 80.1 295.8 80.1 C 296 80.1 295.9 79.9 295.7 79.6 C 295.5 79.4 295.3 79 295.4 78.9 C 295.4 78.7 295.4 78.5 295.3 78.3 C 295.3 78.2 295.2 77.9 295.2 77.8 C 295.1 77.6 295 77.4 295 77.3 C 294.9 77.2 294.9 76.9 294.8 76.8 C 294.8 76.6 294.7 76.4 294.7 76.3 C 294.6 76.2 294.5 75.9 294.5 75.8 C 294.4 75.6 294.4 75.4 294.3 75.3 C 294.3 75.2 294.2 75 294.2 74.8 C 294.2 74.7 294 74.3 293.8 73.9 C 293.6 73.6 293.4 73.1 293.3 72.9 C 291.6 67.1 279.7 56.7 266.1 49.2 C 258.9 45.2 243 38 242.5 38.5 C 242.4 38.6 243.6 43.8 245.1 50 C 253.2 82 257.3 103.8 257.4 113.8 C 257.4 121.5 255 127.8 249.7 134 C 247.7 136.4 247.7 136.4 245.9 131 C 240.3 114.4 236.6 106.1 234.3 104.3 C 231.4 102.2 212.6 94.2 198.5 89.1 L 196.5 88.4 L 187.4 91.9 C 169.1 99 159 103.6 157.6 105.5 C 155.8 108.1 151.5 118.7 147.6 130.3 C 145.4 136.7 145.6 136.5 143.6 134.2 C 133.7 122.9 133.5 113.8 142.2 74.6 C 144.4 64.8 150.3 40.4 150.9 38.9 C 151.2 38.2 150.5 38.3 145.8 40.2 M 141.1 55.2 C 128.3 107.9 127.5 121.5 136.9 134.8 C 139.5 138.4 147.6 146 148.2 145.3 C 148.2 145.3 149.6 141.1 151.3 136.1 C 156.9 119.6 160.6 110.1 162.2 108.7 C 163.7 107.3 179 101.2 193.6 96.1 L 196.6 95 L 205.6 98.3 C 217.2 102.5 224.8 105.5 228.4 107.3 L 231.3 108.8 L 232.6 111.4 C 234.3 114.7 238.5 125.9 242 136.6 C 243.5 141.2 244.8 145 244.9 145.2 C 245 145.3 245.8 144.9 246.8 144.2 C 256.8 137 263 125.6 263 114.3 C 263 105.5 258.9 83.2 252.3 56.2 C 251.2 51.7 250.4 47.9 250.5 47.8 C 250.9 47.4 264 54 269.9 57.8 C 285.8 67.7 290.6 75.1 292.4 91.9 C 292.8 96.1 292.6 108 292 111.1 L 291.6 113.2 L 292.9 114.3 C 298.4 118.9 299.9 142.9 295.4 155.7 L 294.6 158.1 L 296.4 159.7 C 297.3 160.6 298.2 161.3 298.3 161.3 C 298.4 161.4 300.5 159.6 303 157.4 C 305.5 155.3 307.6 153.6 307.7 153.7 C 308.4 154.4 312.2 171.3 313.3 178.6 C 314.8 188.7 315 201.4 313.8 213.6 C 313.1 220.7 313.8 219.9 306.5 222.4 C 299.2 224.9 299.4 224.8 295.7 230.3 L 293.2 233.9 L 293.4 237.6 C 293.9 248.3 298.8 253.9 312.8 259.8 C 314.5 260.5 315.8 261.2 315.7 261.4 C 315.7 261.7 279.4 327.1 277.1 331.1 C 276 333 276.2 333.5 273 321.1 C 271.5 315.3 270.2 310.5 270.1 310.5 C 270.1 310.4 253.5 321 233.3 333.9 L 196.6 357.5 L 195.6 356.8 C 195 356.5 178.5 345.9 158.9 333.3 C 139.3 320.7 123.2 310.5 123.1 310.6 C 123 310.6 122.1 314 121 318.1 C 119.9 322.2 118.6 327.1 118.1 329 C 117.6 330.9 117.1 332.4 117 332.4 C 116.8 332.4 77.7 262.2 77.4 261.4 C 77.3 261.2 77.9 260.8 78.7 260.5 C 91.8 255.5 97.9 249.7 99.5 240.6 C 100.5 235 100.3 234.3 96.7 229.1 C 93.6 224.7 94.1 225 86.5 222.4 L 80.2 220.2 L 79.8 217.1 C 77.9 202.1 78.3 186.7 80.8 172.9 C 81.9 167.5 85.1 153.9 85.5 153.5 C 85.6 153.4 87.7 155.2 90.2 157.4 C 95.2 161.9 94.6 161.8 97.2 159.4 L 98.5 158.1 L 97.6 155.3 C 95.9 150.1 95.5 146.9 95.5 136.1 C 95.5 122 96.8 116.9 101 113.7 C 101.5 113.3 101.6 113 101.2 110.6 C 99.1 98.3 101.5 80.2 106 73.1 C 110.9 65.6 120.8 58.2 136.5 50.5 C 139.6 49 142.3 47.8 142.5 47.8 C 142.8 47.8 142.2 50.6 141.1 55.2 M 189.5 107.7 C 177.9 111.6 170.6 114.8 167.3 117.5 C 163.9 120.1 159.9 131.8 154.5 154.6 C 152.8 161.8 152.7 161.3 156 161.5 L 158.5 161.6 L 158.7 160.4 C 158.9 159.8 159.5 156.3 160.2 152.8 C 162.9 137.8 163.5 136 166.2 133.1 C 168.8 130.3 177.2 124.6 177.8 125.1 C 177.9 125.2 177.4 128.2 176.6 131.7 C 175.9 135.3 175.4 138.3 175.5 138.3 C 175.5 138.4 176.7 137.2 178 135.8 C 180 133.5 183.8 130.3 187.7 127.7 C 188.8 126.9 186.8 127.7 183.9 129.2 C 181.2 130.5 181.2 130.5 185.9 125.4 C 188.2 123 191.6 119.4 193.3 117.5 L 196.6 114.1 L 198.7 116.3 C 206 124 211.3 129.7 211.3 129.9 C 211.3 130 209.9 129.4 208.2 128.6 C 206.4 127.8 205 127.2 205 127.2 C 205 127.3 206.4 128.4 208.1 129.6 C 209.9 130.8 212.7 133.3 214.5 135.1 C 216.3 136.9 217.7 138.4 217.8 138.4 C 217.8 138.4 217.3 135.5 216.5 131.9 C 215.8 128.3 215.3 125.3 215.4 125.2 C 215.7 125 221.4 128.4 223.9 130.3 C 229.4 134.4 229.9 135.8 233.3 154.2 C 234 158.2 234.7 161.5 234.7 161.6 C 235.5 162 240.1 161.2 240.1 160.6 C 238.9 153 231.4 127 228.8 121.6 C 226.5 116.6 220.8 113.5 203.9 107.8 C 195.9 105.1 197.2 105.1 189.5 107.7 M 90.3 175.7 C 86.6 186.1 85.6 193.3 86.3 206.1 C 86.5 210 86.8 213.3 86.9 213.5 C 87.8 214.3 94.1 215.4 99.3 215.6 C 102.4 215.7 106.2 215.9 107.8 216 L 110.8 216.2 L 108.5 214.5 C 107.2 213.5 104.9 211.9 103.4 210.7 C 101.9 209.6 100.7 208.6 100.8 208.6 C 100.9 208.4 109.6 210.2 112.9 211 C 113.4 211.1 112.6 210.1 110.6 208.2 C 99.7 197.8 97.9 196.1 98 196 C 98.1 195.9 102 197.8 106.8 200.2 C 111.5 202.5 115.3 204.3 115.3 204.2 C 113.4 199.3 93.6 171.8 92 171.8 C 91.8 171.8 91.1 173.5 90.3 175.7 M 297.8 175.2 C 295 178.1 277.3 203.8 277.8 204.3 C 277.9 204.4 281.7 202.5 286.5 200.1 C 291.2 197.7 295.1 195.8 295.2 195.8 C 295.3 196 292.6 198.7 284.5 206.5 C 281.9 208.9 279.8 211 279.8 211 C 279.8 211 282.6 210.5 286 209.7 C 291.5 208.6 293.1 208.4 292.1 209 C 290.4 210.2 282.7 215.9 282.8 216 C 283.3 216.5 299.9 215.2 303 214.5 L 306.5 213.6 L 306.8 209.4 C 307.2 203 306.8 190.1 306.2 187.1 C 305.1 182.1 302.1 172.8 301.4 172 C 301.2 171.9 299.6 173.3 297.8 175.2 M 193.7 193.1 C 186.1 195.7 186.5 206.7 194.2 209 C 200.1 210.7 205.5 206.2 204.9 200 C 204.4 194.5 199.1 191.2 193.7 193.1 M 105.2 229.5 C 119.3 236.9 120 237.7 128 255.6 L 130 259.9 L 132.1 255.3 C 135.5 248.3 135.4 248.8 133.6 246.6 C 129.1 240.7 124.6 236.4 121.2 234.7 C 118.4 233.3 100.9 226.7 100.1 226.8 C 99.9 226.8 102.2 228 105.2 229.5 M 290.8 227.5 C 270.2 234.7 267.4 236.3 259.9 246.1 L 258 248.7 L 260.5 254.2 C 261.9 257.3 263.2 259.7 263.2 259.6 C 263.3 259.5 264.3 257.6 265.3 255.2 C 273.1 237.9 273.7 237.2 287.3 229.9 C 292.3 227.2 293 226.8 290.8 227.5 M 167.7 240.7 C 167.7 241.3 169.2 245.6 170 247.1 C 172.1 251.3 173.2 251.7 181.2 252 C 184.2 252 186.7 252 186.7 252 C 186.7 251.9 182.7 249.4 177.9 246.6 C 173.1 243.7 168.8 241.1 168.4 240.8 C 168 240.6 167.7 240.5 167.7 240.7 M 216.3 246 C 211.3 249 207 251.6 206.8 251.8 C 205.7 252.9 219.5 251.6 221 250.5 C 222.4 249.4 226.2 241.2 225.6 240.6 C 225.5 240.5 221.4 243 216.3 246 M 274.2 260.3 C 269.4 263.5 265.3 266.2 265.1 266.4 C 264.8 266.5 266.4 273.5 271 291.6 C 274.4 305.4 277.3 316.5 277.3 316.4 C 277.3 316.3 279.9 305.3 283.1 291.9 C 286.3 278.6 288.9 267.6 288.9 267.5 C 288.8 267.5 286.1 269.2 282.9 271.4 C 279.6 273.6 277 275.2 277 275 C 277 274.9 278.3 270.2 280 264.7 C 281.6 259.2 282.9 254.6 282.9 254.6 C 282.9 254.5 278.9 257.1 274.2 260.3 M 110.5 255.6 C 110.6 256 112 260.5 113.5 265.6 C 115 270.8 116.2 275 116.1 275.1 C 116.1 275.1 113.4 273.5 110.2 271.3 C 107 269.2 104.3 267.6 104.3 267.8 C 104.3 267.9 106.9 278.8 110 291.8 C 113.1 304.8 115.7 315.7 115.7 316 C 115.7 317.4 128.3 268.3 128.3 266.8 C 128.3 266.6 110.9 254.8 110.5 254.8 C 110.4 254.8 110.4 255.1 110.5 255.6 M 163.5 258.3 C 163.6 258.7 164.3 261.3 165.2 264.1 C 167.9 273.4 168.2 273.8 174.2 280.1 C 178.5 284.5 183.7 287.7 193.4 291.7 L 196.5 293 L 199.2 291.9 C 209.4 287.8 214.9 284.5 219.3 279.8 C 225.3 273.4 225.5 272.9 228.7 262 C 230 257.2 230 257.2 226.5 261.7 C 220.4 269.6 216.9 272.7 211.7 274.8 C 209.2 275.7 209.3 275.4 211.9 273.6 C 216.3 270.4 219 267.4 221.3 262.8 L 223.4 258.6 L 220 262.2 C 215.2 267.3 213.7 268.1 207.3 269.8 C 203.4 270.8 203.5 270.6 208.1 266.8 C 210.4 264.9 212.3 263.2 212.2 263.2 C 212.1 263.1 208.7 264.3 204.6 265.7 C 195.6 269 197.5 269 188.6 265.8 C 184.6 264.3 181.1 263.1 180.9 263.1 C 180.8 263.1 182.6 264.7 185 266.7 C 189.9 270.8 189.9 270.7 186.4 269.9 C 180.1 268.5 176.4 266.2 172 261 C 169.6 258.1 169.6 258.3 171.9 262.8 C 174.1 267.2 177 270.5 181.1 273.4 C 184.2 275.6 184.1 275.8 180.9 274.5 C 176 272.6 173.7 270.5 167.1 262.2 C 163.6 257.7 163.1 257.3 163.5 258.3 M 156.6 262.9 C 157.1 269.8 161.5 278.4 168 285.5 C 172.2 290.1 192.7 307.3 192.7 306.3 C 192.7 306.1 191.7 304.6 190.5 302.9 C 188 299.2 188 299.2 192.8 302.6 C 194.8 304 196.6 305.1 196.8 305 C 197.1 304.9 198.9 303.7 200.8 302.3 C 205.2 299.2 205.2 299.2 202.5 303.1 C 201.3 304.8 200.4 306.3 200.5 306.4 C 200.9 306.8 216.5 293.9 222.5 288.1 C 229.9 280.9 234.2 274.1 236 266.6 C 237 262.5 236.9 260.4 235.8 264.3 C 232.4 277.5 220.7 288.9 205 294.1 C 198.8 296.2 197 296.4 192.9 295.5 C 176.3 291.7 161.6 279.3 157.7 265.6 C 156.3 260.6 156.4 260.7 156.6 262.9" stroke="none" fill="#04cbfa" fill-rule="evenodd"></path><path transform="matrix(1.4,0,0,1.2,-66.5,-35.8)" id="path1" d="M 259.8 57.7 C 269 90.4 270.9 116.7 265.1 131.8 C 261.3 141.6 240.6 165.6 224.9 178.5 C 223.6 179.5 223.6 179.6 224 180.3 C 228.7 187.5 229.1 188.8 229 196.4 C 229 199.5 229 202.1 229 202.3 C 229.1 202.9 252.3 185.8 262.6 177.6 C 286.3 158.8 291.6 150.9 292.3 133.2 C 292.6 125.9 292.3 125.4 290.6 130.4 C 284.5 147.7 278.5 155.5 267.1 161.2 C 260.2 164.7 248.2 168.5 251.9 166.1 C 254 164.7 261.1 158.5 265.1 154.4 C 281.5 138.1 286.9 125.7 286.8 104.9 C 286.8 88 286.2 86.7 266.3 64.4 C 259.1 56.4 259.6 56.9 259.8 57.7 M 129.5 61.6 C 112 80.9 107.5 87.3 106.8 94.3 C 104 123.8 112.5 142.6 138 163.4 C 142.9 167.4 142.9 167.4 138.3 166 C 118 159.7 111 152.7 102.7 130.4 L 101 126 L 101.2 132.7 C 101.4 142.9 103.4 149.6 108.2 156.7 C 113 163.9 135.3 182.2 161 200.1 L 164.4 202.5 L 164.2 197.8 C 163.8 190.4 164.6 187.3 168.2 182.1 C 169 180.8 169.7 179.7 169.7 179.7 C 169.7 179.6 168.2 178.3 166.3 176.7 C 152.7 164.9 136.6 146.8 130.3 135.9 C 122.4 122.5 123.3 94.2 132.8 60.3 C 133.7 57 133.7 57 129.5 61.6 M 178.4 145.5 C 164.6 153.1 162.8 164.1 173.7 174.7 L 175 176 L 176.9 175.2 C 179.1 174.3 179.2 174.8 176.2 170.8 C 171.9 165.1 171.6 164.2 172.2 160.6 C 172.5 158.6 172.9 158.9 173.5 161.5 C 174.5 165.1 175.8 167.6 178.6 170.5 L 181.1 173.2 L 183.2 172.1 C 185.3 171.1 185.4 171 184.9 170.4 C 176.8 159.6 175.7 153.8 180.2 146.1 C 181.6 143.8 181.6 143.8 178.4 145.5 M 212.1 144.4 C 212.1 144.4 212.5 145.2 213 146.1 C 217.4 153 216.4 159.4 209.7 168.6 C 208.8 169.9 208.1 171 208.1 171 C 208.2 171.1 209.1 171.6 210.2 172.2 L 212.1 173.3 L 214 171.3 C 217.4 167.9 220.1 162.8 220.1 160 C 220.1 159.1 220.5 158.9 220.9 159.8 C 222.2 163.3 221.2 165.7 214.7 174 C 214.5 174.3 215.2 174.7 216.5 175.2 L 218.5 176 L 220.3 174 C 228.5 165 228.7 156 220.9 149.5 C 218.5 147.6 212.1 143.8 212.1 144.4 M 159.7 213.7 C 164.1 221.8 166.8 224.8 173.4 229 C 175.6 230.3 176.3 231.1 174.8 230.5 C 174.3 230.3 173.8 230 173.6 229.9 C 173.4 229.7 170.7 228.2 167.6 226.5 C 164.4 224.8 160.9 222.9 159.7 222.3 L 157.6 221.1 L 158.3 222.1 C 158.7 222.6 160.6 224.9 162.5 227.3 L 166.1 231.5 L 172.8 236 C 179.7 240.6 187.9 245.5 193.6 248.4 L 196.7 250 L 198.6 249 C 209.1 243.6 225.5 233.1 228.4 229.9 C 232.6 225.4 235.9 221.1 234.7 221.7 C 234.1 222 230.3 224 226.4 226.2 C 217.2 231.2 217.7 230.9 217.7 230.6 C 217.7 230.5 219.2 229.4 220.9 228.2 C 225.2 225.4 228 222.7 230.2 219.4 C 232.5 215.9 235 211.4 234.4 211.7 C 234.1 211.9 231.5 213.8 228.6 216 C 216.3 225.2 208.5 229.3 198.5 231.9 L 197.1 232.2 L 197.1 238 C 197.1 241.7 196.9 243.9 196.7 243.9 C 196.4 243.9 196.3 242.1 196.2 233.3 C 196.2 232.3 196.2 232.2 193.1 231.4 C 182.7 228.4 175 224.1 161.1 213.3 L 158.3 211.1 L 159.7 213.7 M 130.2 220.3 L 127.8 223.3 L 129.6 225.3 C 132.3 228.3 133.1 229.5 136 235.4 C 139 241.4 138.6 241.3 140.7 236.8 C 142.2 233.6 142.3 232.4 141.2 230.2 C 140.1 228 133.1 217.2 132.8 217.2 C 132.6 217.2 131.5 218.6 130.2 220.3 M 258.3 220.3 C 253.2 227.6 251.4 230.9 251.4 233 C 251.4 234.2 253 238.3 254.3 240.2 C 254.6 240.5 255.5 239 257.8 234.5 C 260.4 229.3 261.2 228 263.1 226 C 265.9 223.1 265.9 223.7 263 220.2 C 260.2 216.6 260.8 216.6 258.3 220.3 M 158.1 284.8 C 158.1 290.4 158.9 293.4 161.2 296.2 C 163.7 299.2 170.7 304.7 170.3 303.3 C 170.2 303 169.6 300 169 296.7 L 167.9 290.6 L 163 286.1 L 158.1 281.5 L 158.1 284.8 M 231.4 285.1 C 224.7 291.1 225.5 289.8 224.2 297 C 223.6 300.5 223.1 303.4 223.1 303.6 C 223.1 304.2 228 300.3 230.6 297.7 C 234.3 294 235.6 290.4 235.3 284.1 L 235.2 281.6 L 231.4 285.1" stroke="none" fill="#c4a192" fill-rule="evenodd"></path><path transform="matrix(1.4,0,0,1.2,-66.4,-39.6)" id="path2" d="M 136.8 50.9 C 121.7 58.3 111.3 65.9 106.6 72.9 C 101.9 80.1 99.5 96.9 101.3 110.2 C 101.7 113.8 101.7 113.8 101 114.3 C 95 118.5 93.2 144.3 98.1 156.4 L 98.9 158.4 L 97.7 159.5 C 97.1 160.1 96.1 160.9 95.7 161.3 L 94.8 162.1 L 90.3 158.1 C 87.9 155.9 85.8 154.1 85.7 154.1 C 85.2 154.1 81.3 171.2 80.2 178.3 C 78.4 190 78.4 210.6 80.2 219.4 C 80.4 220.2 81 220.5 86.6 222.4 C 93.8 224.8 93.7 224.8 97.2 229.8 C 100.1 234 100.4 235.1 100 239.1 C 98.8 249.3 93.2 255.3 79.6 260.7 C 78.1 261.3 77.7 261.6 77.9 262 C 78 262.3 83.8 272.9 90.8 285.4 C 97.8 298 106.5 313.7 110.2 320.4 C 114 327.1 117.1 332.3 117.2 332.1 C 117.3 331.8 118.6 326.9 120.1 321.1 C 121.6 315.3 122.9 310.5 122.9 310.5 C 123 310.4 139.5 320.9 159.6 333.9 C 179.8 346.8 196.4 357.4 196.6 357.4 C 196.8 357.4 213.4 346.8 233.5 333.9 C 253.7 321 270.2 310.5 270.3 310.5 C 270.3 310.6 271.7 315.5 273.2 321.3 C 274.8 327.1 276.1 332.1 276.1 332.2 C 276.2 332.4 285.1 316.6 296 297.1 C 306.8 277.6 315.7 261.6 315.6 261.6 C 315.6 261.5 313.8 260.8 311.7 259.9 C 298.4 254.1 293.3 247.9 293.2 237.2 L 293.2 233.9 L 296.1 229.7 C 299.6 224.7 298.9 225.2 306.7 222.4 L 312.8 220.2 L 313.1 218.9 C 314.7 209.1 314.9 190.9 313.4 180.4 C 312.3 172.8 308.6 156.2 307.7 154.5 C 307.6 154.2 306.1 155.3 302.9 158.1 L 298.3 162.1 L 296.4 160.4 C 295.4 159.4 294.5 158.6 294.4 158.5 C 294.3 158.5 294.7 157.5 295.1 156.4 C 299.6 145 298.3 119.9 292.9 114.9 L 291.4 113.6 L 291.9 110.9 C 293.9 97.9 291.4 80.1 286.5 72.8 C 283.4 68.1 276.9 62.6 268.3 57.3 C 263.9 54.6 250.9 48 250.8 48.4 C 250.7 48.5 251.3 51 252 54 C 258 77.8 262.3 100.2 263.2 112.1 C 264.1 124 257.9 136.7 247.4 144.3 C 246.1 145.3 245 145.9 244.9 145.8 C 244.8 145.6 243.1 140.9 241.2 135.4 C 233.6 113 232.2 109.8 229.2 108.2 C 225.6 106.2 198.4 95.8 196.7 95.7 C 195.6 95.6 170.4 105.1 165.3 107.5 C 161.1 109.5 159.1 113.9 151 138.2 C 149.7 142.3 148.5 145.7 148.4 145.8 C 148.1 146.2 142.6 142 140.4 139.6 C 132.9 131.6 129.7 122.9 130.1 112.2 C 130.6 102.1 135.1 78.1 141.4 53.4 C 142.1 50.6 142.6 48.2 142.6 48.2 C 142.5 48.1 140 49.3 136.8 50.9 M 133.6 61 C 125.1 88.3 122.7 119.2 127.8 133.5 C 131.6 144 149.5 165.6 166.3 179.7 C 170.2 183.1 170 182.6 168.4 185 C 164.9 190.2 164.3 192.4 164.4 199.9 C 164.5 203.1 164.4 205.7 164.3 205.7 C 163.5 205.7 140 188.5 130.4 180.8 C 110.8 165.2 105.1 158.4 102.4 147.3 C 100.2 138.7 100 125.4 102.1 131.8 C 109.7 154.1 117 161.8 136.7 168.4 C 141.5 170.1 142.5 170.2 141 169.2 C 127.9 160 113.7 142.7 109.6 130.9 C 106 120.5 104.9 98.5 107.7 92.2 C 109.4 88.3 119.5 75.3 127.7 66.6 C 128.6 65.7 130.2 63.9 131.2 62.7 C 133.2 60.4 133.9 59.9 133.6 61 M 263.9 64.8 C 274.9 76.9 282.8 86.8 285.4 91.7 C 287.4 95.8 287.6 113.8 285.7 123.6 C 282.7 138.6 272.1 153.4 254.2 167.6 C 252.6 168.9 251.4 169.9 251.5 170 C 252.3 170.8 268.2 164 272.8 160.9 C 280.1 156.1 286.9 145.1 291.2 131.4 C 292.3 128 292.4 128.6 292.3 135.6 C 291.8 154.1 287.2 161.2 263.7 180.1 C 254.3 187.6 229.8 205.7 229 205.7 C 228.9 205.7 228.8 202.9 228.8 199.3 C 228.9 191.8 228.1 189.4 223.9 183.6 C 223.4 182.9 223.6 182.7 227.9 178.9 C 247.4 161.9 263.5 141.6 266.4 130.6 C 270.2 115.5 267.5 86.5 260.1 62.5 C 259.2 59.7 259.2 59.7 263.9 64.8 M 204.9 108.2 C 219 113 226 116.6 228.2 120 C 231.6 125.5 241.6 161.2 239.9 161.8 C 239.7 161.9 237.8 163.4 235.8 165 C 233.5 166.9 232 167.9 231.9 167.7 C 231.8 167.4 231.3 164.8 230.9 161.7 C 228.7 148.4 227.1 141.8 225.1 138.8 C 224 137.2 218.7 131.6 218.5 131.8 C 218.5 131.9 219.4 134.7 220.5 138.2 C 222.6 144.2 222.8 145.1 221.5 143.8 C 218.4 140.3 207.1 138 203.5 140 C 201 141.4 201 141.4 204.9 147.1 L 208.4 152.1 L 204.3 162 L 200.1 171.9 L 196.7 172 C 193.6 172.1 193.4 172.1 193 171.4 C 192.2 169.9 185 152.6 185 152.2 C 185 152 186.5 149.7 188.2 147.2 C 192.1 141.7 192 141.9 191 140.9 C 188.1 137.8 178.6 139 172.2 143.4 C 171.4 144 170.7 144.4 170.7 144.3 C 170.7 144.2 171.6 141.4 172.7 138.2 C 175.2 130.9 175.2 131 171.5 134.8 C 166.4 140.2 165.4 143.1 162.4 161.7 C 161.8 165.1 161.3 167.9 161.3 167.9 C 161.2 168 153.4 161.9 152.9 161.4 C 152.3 160.8 159.9 132.8 162.3 126.4 C 165.8 116.8 168.7 114.8 189.3 107.9 C 197.6 105.1 195.7 105.1 204.9 108.2 M 181.4 147.6 C 181.4 147.7 181 148.3 180.5 149 C 176.1 155.7 176.9 162.2 183.3 171.2 C 185.8 174.7 185.8 174.2 183.3 175.4 C 180.9 176.7 180.8 176.6 177.8 173.2 C 175.4 170.3 173.9 167.5 173.3 164.5 C 172.7 162.3 172.4 162.5 172.1 165.3 C 171.9 167.8 172.3 168.7 176.2 173.8 C 177.7 175.9 179 177.6 178.9 177.6 C 178.9 177.7 178 178.1 176.9 178.6 L 175 179.4 L 173.9 178.4 C 166 171.5 164.4 160.9 170.3 154.7 C 173.4 151.4 181.4 146.3 181.4 147.6 M 214.4 148.5 C 228.1 155.3 230.5 166.5 220.6 176.9 L 218.2 179.4 L 216.5 178.6 C 215.5 178.2 214.6 177.8 214.5 177.7 C 214.4 177.6 215.5 175.8 217 173.9 C 221.1 168.5 221.6 167.3 220.9 163.9 L 220.6 162.6 L 219.6 165.8 C 218.4 169.4 217 171.7 214 174.6 L 212 176.6 L 210.1 175.5 C 207.7 174.2 207.7 174.4 210 171.1 C 216.4 162.2 217.1 155.6 212.5 148.7 C 211.5 147.1 211.8 147.1 214.4 148.5 M 303.1 176.1 C 305.4 182.4 306.6 187.7 307.1 193.2 C 307.6 200.7 306.9 215.5 306 216.1 C 304.6 217 271 232.1 270.8 232 C 270.5 231.6 260 206 260 205.6 C 260.1 205.4 269.1 197.1 280.1 187.2 L 300.2 169.1 L 300.9 170.5 C 301.3 171.3 302.3 173.9 303.1 176.1 M 113.4 187.5 C 124.4 197.4 133.3 205.6 133.3 205.8 C 132.2 208.7 122.5 232.1 122.3 232.1 C 121.9 232.1 87.5 216.3 87.1 215.9 C 85.8 214.7 85.7 192.6 87 186.6 C 88.2 181 92.3 169.4 93.1 169.4 C 93.3 169.4 102.4 177.5 113.4 187.5 M 203 176.5 C 223.5 181.6 229.1 208.7 212.2 221.5 C 195.4 234.4 171 222.5 171 201.2 C 171 184.4 186.6 172.3 203 176.5 M 99.4 179.6 C 99.4 179.8 104.1 186.9 114.1 202.1 C 115.1 203.6 115.8 205 115.6 205 C 115.5 205.1 111.7 203.2 107.2 200.9 C 102.6 198.6 98.9 196.8 98.9 196.8 C 98.8 196.9 100.9 198.9 103.5 201.4 C 111.5 209 114 211.5 113.9 211.6 C 113.8 211.7 111 211.2 107.7 210.4 C 104.3 209.7 101.5 209.2 101.4 209.2 C 101.4 209.3 103.5 210.9 106.2 212.8 C 111.5 216.6 111.8 216.9 109.4 216.6 C 107.3 216.4 95.4 216.1 96.2 216.3 C 98.6 216.9 117.9 221.4 118.2 221.4 C 118.4 221.4 119.7 217.9 121.2 213.5 C 122.6 209.1 123.8 205.4 123.9 205.2 C 124 205 120.9 201.5 117 197.5 C 113.1 193.5 107.5 187.8 104.6 184.8 C 101.7 181.9 99.4 179.5 99.4 179.6 M 281.7 192 C 275 198.9 269.5 204.7 269.4 205 C 269.3 205.5 274.3 220.7 274.7 221.2 C 274.9 221.5 285.2 219.2 297.2 216.3 C 298 216.1 285.7 216.4 283.8 216.6 C 281.6 216.9 282 216.4 287.2 212.6 C 289.9 210.7 292 209.1 292 209.1 C 291.9 209.1 289.1 209.7 285.7 210.4 C 282.3 211.2 279.5 211.7 279.4 211.6 C 279.3 211.5 281.3 209.4 283.9 207 C 286.4 204.6 289.9 201.3 291.6 199.7 C 293.3 198.1 294.6 196.7 294.5 196.7 C 294.4 196.7 290.6 198.6 286 200.9 C 281.4 203.2 277.6 205.1 277.5 205 C 277.4 204.9 278.9 202.5 280.7 199.7 C 290.6 184.9 294.1 179.4 294 179.4 C 293.9 179.4 288.4 185.1 281.7 192 M 194.5 186.8 C 180.2 189.2 177.4 208.4 190.4 214.4 C 202.7 220.1 215.5 207.5 209.9 195.2 C 207.2 189.3 200.7 185.7 194.5 186.8 M 130.4 191.3 C 130.8 192.2 156.8 213.6 158.2 214.1 C 158.4 214.2 161.3 216.3 164.6 218.8 C 177.2 228.3 183.4 231.6 193.3 234.4 L 196.7 235.4 L 200.5 234.2 C 210.8 231.1 215.7 228.4 228.5 219 C 241.3 209.6 248.1 204.1 258.5 195.3 C 261.2 192.9 263.2 191.4 263 191.8 C 259.2 199 249.3 213.1 242.8 220.4 C 238.1 225.8 231.3 232 230.7 231.6 C 230.5 231.5 230.4 231.5 230.4 231.7 C 230.9 233.2 199.5 253.4 196.6 253.4 C 194.7 253.4 169.9 238.2 165.5 234.3 C 164.6 233.5 163 232.2 161.9 231.4 C 156.7 227.5 149 219.3 143.3 211.6 C 138.2 204.9 129.3 191.1 130 191.1 C 130.2 191.1 130.4 191.2 130.4 191.3 M 200.8 193.7 C 206.8 196.9 206.8 205.6 200.7 208.9 C 195 212 188 207.8 188 201.2 C 188 194.6 194.9 190.5 200.8 193.7 M 140.8 222.6 C 148.8 234.5 148.8 234.7 142.5 244.1 L 140.3 247.5 L 139.1 245.4 C 138.5 244.2 137.2 241.7 136.3 239.7 C 133.6 234.2 131.9 231.4 129.6 228.9 L 127.4 226.5 L 129.9 223.4 C 131.2 221.7 132.8 219.9 133.3 219.3 C 133.9 218.8 134.7 217.8 135.1 217.2 C 136.1 215.7 136 215.6 140.8 222.6 M 259 218.2 C 266.6 227.2 266.2 226.5 264 228.6 C 261.7 230.8 260.6 232.6 256.5 240.6 L 253.1 247.4 L 251.8 245.7 C 248.5 241.1 246 236.3 246 234.3 C 246 232.4 248.8 227.7 255.9 217.5 C 257.1 215.8 257 215.8 259 218.2 M 106.9 229.1 C 121.2 234.2 123.4 235.3 127.9 239.9 C 130.4 242.5 134.9 247.8 135.3 248.7 C 135.5 249.2 130.3 260.5 130 260.3 C 129.7 260.2 98.8 227.3 98.5 226.7 C 98.1 226.1 99.5 226.5 106.9 229.1 M 292.5 229.2 C 277.3 245.6 263.5 260.3 263.3 260.3 C 263.1 260.3 261.8 257.7 260.3 254.6 L 257.7 249 L 259.6 246.4 C 266.8 237 269.9 235 287 228.9 C 295.7 225.8 295.7 225.8 292.5 229.2 M 155.4 235.7 C 162 247.4 169.2 255 175.2 256.6 C 180.3 257.9 210.8 258.2 216.5 257 C 224 255.3 228.9 250.4 238.6 234.4 C 241 230.5 236.2 254.2 232.7 263.8 C 228.2 276 218.9 284.1 200.6 291.9 C 196.4 293.7 196.8 293.7 193.5 292.3 C 180.3 286.7 169.9 279.7 165.5 273.6 C 160.9 267.1 156.4 252.7 154.4 237.9 C 154.2 236.4 153.9 234.8 153.9 234.3 C 153.6 233 154.1 233.4 155.4 235.7 M 177.5 246.2 C 182.7 249.4 187 252 187 252.1 C 187.1 253.1 175.4 252.6 173.1 251.5 C 171.1 250.6 168.3 245.4 167.5 241.3 C 167.2 240 166.5 239.7 177.5 246.2 M 226 240.9 C 226 242.8 222.8 249.6 221.3 250.9 C 219.7 252.2 213.2 253.1 208.5 252.6 C 205.7 252.3 205.1 252.8 216.2 246.1 C 226 240.2 226 240.2 226 240.9 M 116.8 254.1 C 123.8 261.6 128.7 267.1 128.6 267.4 C 126 278.1 116.1 317.1 116 317.1 C 115.8 317.1 88.9 269.5 88.8 268.9 C 88.7 268.7 89.8 268 91.1 267.2 C 97.9 263.4 101.7 256.7 103.9 244.5 C 104.2 242.6 104.6 241.1 104.7 241.2 C 104.9 241.2 110.3 247 116.8 254.1 M 289 242.2 C 289 245.1 291.5 254 293.4 258.1 C 295.1 261.6 298.9 265.6 302.4 267.4 C 303.5 268 304.6 268.5 304.6 268.6 C 304.7 268.6 277.8 316.6 277.5 317.1 C 277.1 317.5 264.7 269.1 264.7 267.3 C 264.7 266.6 288.3 241 288.7 241.3 C 288.9 241.4 289 241.8 289 242.2 M 146.1 257.6 C 143.7 259.5 141.9 263.8 142 267.6 C 142 272.7 146.7 283.1 158 302.6 C 160.7 307.2 144.5 288 140.1 281.3 C 134.4 272.6 133.8 265.7 138.2 255.8 L 139 254.1 L 143 255.5 L 147.1 256.8 L 146.1 257.6 M 256.5 259.8 C 259.6 269.3 258.1 275.1 249.5 286.3 C 244.3 293.3 233.3 305.9 235 303 C 251.4 275.5 254.4 265.2 247.9 258.5 L 246.2 256.8 L 250.2 255.5 L 254.2 254.2 L 254.9 255.7 C 255.3 256.6 256 258.4 256.5 259.8 M 158.2 266.6 C 162.7 280.3 177 292.1 193.6 295.7 C 197 296.5 198.7 296.3 205.2 294.2 C 221.2 289 234.5 275.1 236.2 261.7 C 236.3 260.7 236.5 259.7 236.5 259.5 C 236.8 257.1 237.1 259.7 236.9 263.6 C 236.3 275.3 234.9 278.6 227 286.6 L 223 290.5 L 222.1 296 C 221.5 299 221 301.5 221 301.6 C 220.7 301.8 197.1 315.7 196.8 315.8 C 196.5 315.9 173.2 302.3 172.5 301.6 C 172.3 301.4 171.7 298.8 171.2 295.9 L 170.3 290.6 L 166.6 287 C 158 278.4 156.5 274.7 156.4 262.1 L 156.4 257.9 L 156.9 260.9 C 157.1 262.6 157.7 265.1 158.2 266.6 M 163 289 C 165.3 291.1 167.4 293 167.6 293.2 C 168 293.6 170.7 307.1 170.5 307.4 C 169.8 308.2 160.6 299.7 159.3 296.9 C 157.7 293.4 156.8 283.7 158.3 284.8 C 158.6 285 160.7 287 163 289 M 235.6 288.7 C 235.3 295.4 234.2 297.9 230 301.9 C 227.8 304 223 307.5 222.8 307.3 C 222.3 306.8 225.2 293.8 226 293 C 227.9 291 235.2 284.4 235.5 284.4 C 235.7 284.4 235.7 286.2 235.6 288.7 M 144.7 299.3 C 146.8 299.8 151.6 301.9 152.9 302.9 C 153.5 303.4 153.2 303.4 149.7 303.2 C 145.8 303 139.1 303.9 138.2 304.8 C 138 305 138.5 305.8 139.9 307 C 144 310.9 151.3 317.7 153.5 319.8 C 154.8 321 156.2 322.3 156.7 322.7 L 157.5 323.5 L 156.4 322.8 C 155.7 322.5 148.4 318.3 140 313.6 C 122.1 303.4 123.5 304.5 125.7 303.1 C 131.1 299.6 139.2 298 144.7 299.3 M 258.8 299.5 C 262.1 300.4 266 302.1 268.2 303.5 L 269.4 304.3 L 253.1 313.6 C 244.2 318.7 236.6 323 236.4 323.2 C 235.7 323.6 238.6 320.8 241.7 317.9 C 243.1 316.7 246.5 313.4 249.3 310.8 C 252.1 308.1 254.7 305.7 255 305.5 C 256.4 304.4 250.8 303.2 244.4 303.3 C 239.1 303.3 239.2 303.3 243.1 301.3 C 248.4 298.7 253.2 298.1 258.8 299.5 M 180.8 314.6 C 184.3 316.2 189.2 318.4 191.6 319.5 C 197.3 322 194.2 322.8 216.6 312.7 C 219.5 311.4 219.8 311.6 219.5 314.3 C 219.2 317.6 217.7 319.9 213.9 322.9 C 211 325.2 198.7 333.5 197.2 334.1 C 196.4 334.5 195.9 334.2 189.5 329.9 C 175.9 321 174.1 319.1 173.8 314 C 173.6 311.2 173 311.1 180.8 314.6" stroke="none" fill="#040405" fill-rule="evenodd"></path><path transform="matrix(1.4,0,0,1.2,-66.4,-36.9)" id="path3" d="M 150.9 37 C 150.8 37.5 150.7 37.9 150.8 38 C 150.9 38.1 151.1 37.8 151.2 37.3 C 151.3 36.8 151.3 36.3 151.3 36.3 C 151.2 36.2 151 36.5 150.9 37 M 242.4 37.9 C 242.4 38.5 246.8 55.8 246.9 55.7 C 247 55.6 246.1 51.6 244.9 46.8 C 242.9 39 242.4 37.1 242.4 37.9 M 148.4 46.7 C 147.5 50.5 146.7 53.6 146.8 53.7 C 146.9 53.8 147.7 50.7 148.7 46.9 C 149.6 43.2 150.3 40 150.3 39.9 C 150.2 39.8 149.3 42.9 148.4 46.7 M 145.9 56.7 C 145.6 58 145.4 59.2 145.4 59.3 C 145.5 59.4 145.8 58.3 146.2 56.9 C 146.5 55.6 146.7 54.4 146.6 54.3 C 146.6 54.2 146.2 55.3 145.9 56.7 M 247.1 56.3 C 247 56.9 248.5 63 248.6 62.6 C 248.6 62.5 248.3 60.9 247.9 59.1 C 247.5 57.4 247.1 56.1 247.1 56.3 M 130.7 61.1 L 129.5 62.3 L 130.8 61.2 C 131.5 60.5 132 60 132 59.9 C 132 59.7 131.8 59.9 130.7 61.1 M 144.9 60.8 C 144.6 62.2 144.9 62.5 145.2 61.1 C 145.3 60.6 145.4 60 145.3 59.9 C 145.2 59.9 145 60.3 144.9 60.8 M 263.4 62.2 C 263.4 62.3 263.9 62.8 264.5 63.3 L 265.5 64.3 L 264.6 63.2 C 263.6 62.2 263.4 62 263.4 62.2 M 144.2 63.7 C 144.1 64.3 144.1 64.9 144.1 65 C 144.2 65.1 144.4 64.6 144.5 64 C 144.6 63.3 144.7 62.7 144.6 62.6 C 144.5 62.5 144.3 63 144.2 63.7 M 248.7 63.5 C 248.7 63.7 249.1 65.4 249.5 67.1 C 249.9 68.9 250.3 70.1 250.3 69.8 C 250.3 69.5 250 67.9 249.6 66.1 C 249.1 64.4 248.8 63.2 248.7 63.5 M 282.4 65.6 C 283.4 66.6 284.3 67.5 284.3 67.5 C 284.4 67.5 283.7 66.6 282.7 65.6 C 281.7 64.6 280.8 63.8 280.7 63.8 C 280.6 63.8 281.4 64.6 282.4 65.6 M 266.4 65.6 C 266.4 65.6 266.9 66.1 267.5 66.7 L 268.5 67.6 L 267.6 66.6 C 266.6 65.5 266.4 65.3 266.4 65.6 M 142.9 69.5 C 142.6 71 142.4 72.3 142.5 72.3 C 142.5 72.4 142.9 71.3 143.2 69.8 C 143.5 68.3 143.7 67 143.6 67 C 143.5 66.9 143.2 68 142.9 69.5 M 250.8 72.3 C 250.8 72.7 251 73.7 251.2 74.6 C 251.4 75.6 251.6 76 251.6 75.6 C 251.6 75.3 251.4 74.2 251.2 73.3 C 251 72.4 250.8 71.9 250.8 72.3 M 141.9 74 C 141.8 74.7 141.7 75.3 141.8 75.4 C 141.9 75.4 142.1 75 142.2 74.3 C 142.3 73.6 142.3 73 142.3 72.9 C 142.2 72.8 142 73.3 141.9 74 M 141.1 77.8 C 140.8 79 140.7 79.9 140.8 80 C 140.9 80.1 141.1 79.2 141.3 78.1 C 141.6 77 141.7 76 141.6 75.9 C 141.5 75.8 141.3 76.7 141.1 77.8 M 251.8 77 C 251.8 77.3 252 78.4 252.2 79.3 C 252.4 80.2 252.6 80.7 252.6 80.3 C 252.6 79.9 252.4 78.9 252.2 78 C 252 77.1 251.8 76.6 251.8 77 M 139.5 85.1 C 139 87.7 138.7 89.9 138.8 90 C 138.8 90 139.3 88 139.8 85.4 C 140.3 82.8 140.7 80.7 140.6 80.6 C 140.5 80.5 140 82.6 139.5 85.1 M 253.1 83.1 C 253.1 83.4 253.3 84.5 253.5 85.6 C 253.8 86.7 254 87.3 254 86.8 C 254 85.9 253.1 82.4 253.1 83.1 M 254.4 90.1 C 254.4 90.6 254.6 91.4 254.7 92 C 254.9 92.9 255 92.9 255 92.1 C 255 91.7 254.8 90.9 254.7 90.3 C 254.5 89.4 254.4 89.4 254.4 90.1 M 138.2 92 C 138.1 92.8 138.1 93.6 138.1 93.7 C 138.2 93.8 138.4 93.1 138.5 92.3 C 138.6 91.4 138.7 90.7 138.6 90.6 C 138.5 90.5 138.3 91.1 138.2 92 M 292.5 93.5 C 292.5 94.3 292.5 94.6 292.6 94.2 C 292.7 93.8 292.7 93.1 292.6 92.7 C 292.5 92.3 292.5 92.6 292.5 93.5 M 255.1 93.6 C 255.1 94 255.2 94.9 255.3 95.6 C 255.6 96.8 255.6 96.8 255.6 96 C 255.6 94.8 255.1 92.6 255.1 93.6 M 137.4 97 C 137.2 98.6 137 99.9 137.1 100 C 137.2 100.1 137.5 98.9 137.7 97.3 C 137.9 95.7 138 94.4 138 94.3 C 137.9 94.2 137.6 95.4 137.4 97 M 100.5 98 C 100.5 99.3 100.5 99.7 100.6 99 C 100.7 98.4 100.7 97.3 100.6 96.7 C 100.5 96.1 100.5 96.7 100.5 98 M 106.4 97.8 C 106.4 98.4 106.5 98.7 106.6 98.4 C 106.7 98.1 106.7 97.5 106.6 97.2 C 106.5 96.9 106.4 97.2 106.4 97.8 M 286.8 100.1 C 286.8 101 286.9 101.3 286.9 100.9 C 287 100.5 287 99.8 286.9 99.4 C 286.9 99 286.8 99.3 286.8 100.1 M 256.1 100.1 C 256.1 100.8 256.2 101 256.3 100.7 C 256.3 100.4 256.3 99.9 256.3 99.6 C 256.2 99.2 256.1 99.5 256.1 100.1 M 136.8 101.5 C 136.8 102.1 136.8 102.4 136.9 102.1 C 137 101.7 137 101.2 136.9 100.9 C 136.8 100.6 136.8 100.8 136.8 101.5 M 256.5 102.6 C 256.5 103.4 256.5 103.6 256.6 103.2 C 256.7 102.8 256.7 102.2 256.6 101.9 C 256.5 101.6 256.4 101.9 256.5 102.6 M 106.2 106 C 106.2 108.2 106.2 109 106.3 107.9 C 106.3 106.7 106.3 104.9 106.3 103.9 C 106.2 102.8 106.2 103.8 106.2 106 M 136.5 104 C 136.5 104.7 136.5 105 136.6 104.6 C 136.7 104.1 136.7 103.5 136.6 103.2 C 136.5 102.9 136.4 103.2 136.5 104 M 256.8 105.3 C 256.8 106 256.9 106.3 256.9 105.9 C 257 105.5 257 104.9 256.9 104.6 C 256.8 104.2 256.8 104.6 256.8 105.3 M 136.1 107 C 136.1 107.9 136.2 108.2 136.3 107.7 C 136.3 107.2 136.3 106.5 136.3 106.1 C 136.2 105.6 136.1 106.1 136.1 107 M 257.1 109.1 C 257.1 110.5 257.2 111.1 257.3 110.4 C 257.3 109.7 257.3 108.6 257.3 107.9 C 257.2 107.2 257.1 107.8 257.1 109.1 M 130.1 108.8 C 130.1 109.4 130.2 109.7 130.3 109.4 C 130.3 109.1 130.3 108.5 130.3 108.2 C 130.2 107.9 130.1 108.2 130.1 108.8 M 135.8 112.1 C 135.8 113.9 135.9 114.6 135.9 113.7 C 136 112.9 136 111.4 135.9 110.6 C 135.9 109.7 135.8 110.4 135.8 112.1 M 124.8 111 C 124.8 111.9 124.9 112.2 124.9 111.7 C 125 111.2 125 110.5 124.9 110.1 C 124.9 109.6 124.8 110.1 124.8 111 M 263.1 112.1 C 263.1 113.5 263.2 114.1 263.3 113.4 C 263.3 112.7 263.3 111.6 263.3 110.9 C 263.2 110.2 263.1 110.8 263.1 112.1 M 286.8 111.6 C 286.8 112.4 286.9 112.6 286.9 112.2 C 287 111.8 287 111.2 286.9 110.9 C 286.8 110.6 286.8 110.9 286.8 111.6 M 190.2 119.2 C 186.7 122.9 183.6 126.3 183.3 126.7 C 182.5 127.6 182.8 127.6 186.7 125.7 C 189.8 124.1 190.5 124.3 187.9 126 C 184.3 128.2 180.5 131.4 177.9 134.2 C 176.5 135.7 175.3 136.9 175.2 136.8 C 175.1 136.7 175.6 133.7 176.3 130.1 C 177.1 126.6 177.6 123.6 177.6 123.6 C 177.4 123.3 171.2 127.1 169 128.9 C 163.9 132.8 163.4 134.4 159.3 157.5 L 158.8 160 L 156.4 159.9 C 153.5 159.7 153.5 159.6 156.3 161.8 C 157.5 162.8 159.2 164.1 160 164.8 C 160.9 165.5 161.4 165.8 161.3 165.4 C 161.2 165.1 161.2 164.8 161.4 164.7 C 161.6 164.7 161.7 163.7 161.8 162.6 C 161.8 161.4 162 160.5 162.2 160.5 C 162.3 160.5 162.4 160 162.3 159.5 C 162.2 158.9 162.3 158.5 162.5 158.5 C 162.6 158.5 162.7 158 162.6 157.5 C 162.5 156.9 162.6 156.5 162.7 156.5 C 163 156.5 163.7 151.5 163.5 151.1 C 163.4 150.9 163.5 150.8 163.7 150.8 C 164 150.8 164 150.5 164 150 C 163.9 149.5 163.9 149.1 164.1 149.1 C 164.3 149.1 164.4 148.8 164.3 148.3 C 164.2 147.8 164.3 147.5 164.5 147.5 C 164.6 147.5 164.7 147.1 164.6 146.7 C 164.5 146.2 164.6 145.8 164.7 145.7 C 164.8 145.7 165.3 144.3 165.7 142.7 C 166.5 139.2 167.5 137.2 169.5 134.7 C 170.3 133.7 170.9 132.8 170.9 132.7 C 170.8 132.6 170.8 132.6 170.9 132.6 C 171.1 132.7 172 132 172.9 131.1 C 175.1 128.9 175.1 128.8 172.7 135.9 C 171.6 139.1 170.7 141.9 170.7 142 C 170.7 142 171.6 141.5 172.7 140.8 C 173.9 140.1 175.1 139.4 175.4 139.3 C 175.8 139.2 176 139 175.9 138.8 C 175.8 138.7 175.9 138.6 176.1 138.6 C 177.2 138.6 177.7 138.4 177.6 138.2 C 177.5 138 177.6 137.9 177.8 137.9 C 178.6 138 181 137.4 181 137.2 C 181 137 181.5 137 182 137.1 C 182.6 137.1 183.2 137.1 183.5 136.9 C 184.5 136 189.7 137.2 191 138.6 C 192 139.6 192.1 139.4 188.2 144.9 C 186.5 147.4 185 149.7 185 149.9 C 185 150.4 192.2 167.6 193 169.1 C 193.4 169.8 193.6 169.8 196.7 169.7 L 200.1 169.6 L 204.3 159.7 L 208.4 149.9 L 204.9 144.8 C 201.2 139.4 201.1 139.1 202.9 138.1 C 203.3 137.9 203.6 137.6 203.5 137.4 C 203.4 137.3 203.6 137.2 203.9 137.3 C 204.1 137.5 204.4 137.4 204.4 137.2 C 204.4 137 204.7 136.9 205 137 C 205.4 137.1 205.9 137.1 206.1 136.9 C 206.3 136.7 207.3 136.6 208.2 136.7 C 209.1 136.8 210.4 136.9 211 136.9 C 211.5 136.9 212 137.1 212 137.2 C 212 137.4 212.3 137.5 212.6 137.5 C 213.7 137.5 217 138.8 219.3 140 C 220.5 140.7 221.6 141.3 221.8 141.2 C 221.9 141.2 222 141.3 222 141.5 C 221.9 141.7 222.1 142 222.3 142 C 222.5 142.1 221.7 139.4 220.6 135.9 C 219.4 132.5 218.5 129.6 218.5 129.5 C 219.3 128.8 226.1 137.5 226.9 140.3 C 227.2 141.3 227.6 142.1 227.7 142.1 C 227.9 142.1 227.9 142.4 227.8 142.8 C 227.7 143.2 227.8 143.5 227.9 143.5 C 228.1 143.5 228.2 144.1 228.3 144.9 C 228.3 145.7 228.5 146.3 228.6 146.4 C 228.8 146.4 228.9 146.9 228.8 147.3 C 228.7 147.8 228.8 148.1 228.9 148.1 C 229.1 148.1 229.2 148.5 229.1 149 C 229 149.4 229.1 149.8 229.2 149.8 C 229.4 149.8 229.6 150.6 229.6 151.6 C 229.7 152.5 229.8 153.3 230 153.4 C 230.1 153.4 230.2 153.9 230.1 154.5 C 230 155 230.1 155.5 230.2 155.5 C 230.4 155.5 230.6 156.2 230.6 157 C 230.6 157.9 230.8 158.8 230.9 159.1 C 231 159.4 231.1 160.1 231.1 160.6 C 231 161.1 231.1 161.5 231.3 161.5 C 231.4 161.5 231.6 162.2 231.6 163.2 C 231.7 166.3 231.3 166.4 239.6 159.7 C 239.6 159.7 238.6 159.7 237.3 159.8 C 234.2 160.1 234.6 160.7 233.2 153.1 C 230 135.7 229.3 133.3 226.1 130.4 C 223 127.6 215.7 123 215.7 123.9 C 215.7 124.1 216.3 127.1 217 130.6 C 218.4 137.5 218.3 137.7 215.7 134.6 C 213.7 132.3 208.9 128.2 206 126.3 C 202.3 124 202.9 124 207.6 126.2 L 211.2 127.8 L 209.3 125.9 C 208.3 124.8 205.1 121.4 202.2 118.3 C 199.3 115.2 196.8 112.6 196.7 112.6 C 196.6 112.5 193.7 115.5 190.2 119.2 M 257.1 114.8 C 257.1 115.8 257.2 116.2 257.3 115.7 C 257.3 115.2 257.3 114.4 257.3 113.9 C 257.2 113.4 257.1 113.8 257.1 114.8 M 136.1 116.5 C 136.1 117.1 136.2 117.4 136.3 117.1 C 136.3 116.7 136.3 116.2 136.3 115.9 C 136.2 115.6 136.1 115.8 136.1 116.5 M 268.1 116.6 C 268.1 117.4 268.2 117.6 268.3 117.2 C 268.3 116.8 268.3 116.2 268.3 115.9 C 268.2 115.6 268.1 115.9 268.1 116.6 M 100.8 132.1 C 100.8 134.2 100.9 135.1 100.9 134.1 C 101 133 101 131.3 100.9 130.2 C 100.9 129.2 100.8 130 100.8 132.1 M 297.8 133.5 C 297.8 135 297.9 135.7 297.9 134.9 C 298 134.1 298 132.8 297.9 132.1 C 297.9 131.3 297.8 131.9 297.8 133.5 M 251.8 138.2 L 250.9 139.3 L 252 138.3 C 252.5 137.8 253 137.3 253 137.2 C 253 137 252.8 137.2 251.8 138.2 M 268.2 152.2 L 266.9 153.6 L 268.3 152.3 C 269.6 151.1 269.9 150.8 269.6 150.8 C 269.5 150.8 268.9 151.4 268.2 152.2 M 277.4 155 C 276.6 155.8 276 156.5 276.1 156.5 C 276.2 156.5 276.9 155.8 277.7 155 C 278.5 154.1 279.1 153.5 279 153.5 C 278.9 153.5 278.2 154.1 277.4 155 M 177.5 156 C 177.5 156.7 177.5 157 177.6 156.6 C 177.7 156.1 177.7 155.5 177.6 155.2 C 177.5 154.9 177.4 155.2 177.5 156 M 262.2 158.2 L 260.9 159.6 L 262.3 158.3 C 263.6 157.1 263.9 156.8 263.6 156.8 C 263.5 156.8 262.9 157.4 262.2 158.2 M 132 159.2 C 132 159.3 132.5 159.8 133.1 160.3 L 134.2 161.3 L 133.2 160.2 C 132.3 159.2 132 159 132 159.2 M 166.4 160.5 C 166.4 161.1 166.5 161.4 166.6 161.1 C 166.7 160.7 166.7 160.2 166.6 159.9 C 166.5 159.6 166.4 159.8 166.4 160.5 M 279.7 163.7 L 276.9 166.6 L 279.8 163.8 C 281.4 162.3 282.7 160.9 282.7 160.9 C 282.7 160.7 282.3 161 279.7 163.7 M 116 166.2 C 116 166.3 116.5 166.8 117.1 167.3 L 118.2 168.3 L 117.2 167.2 C 116.3 166.2 116 166 116 166.2 M 280.1 184.9 C 269.1 194.8 260.1 203.1 260.1 203.3 C 260 204.1 262.3 209.1 262.5 208.9 C 262.7 208.8 262.7 208.8 262.6 209 C 262.3 209.5 265.2 216.6 265.5 216.2 C 265.7 216.1 265.7 216.1 265.6 216.3 C 265.3 216.8 267.5 222.2 267.9 221.9 C 268 221.8 268 221.8 267.9 222 C 267.7 222.4 270.3 229.2 270.8 229.7 C 271 229.9 304.8 214.6 305.9 213.9 C 306.1 213.7 306.4 213.2 306.5 212.8 L 306.7 211.9 L 304.9 212.3 C 304 212.6 301 213.3 298.4 213.8 C 295.7 214.4 293.1 214.9 292.6 215 C 292.1 215.1 291.7 215.4 291.7 215.5 C 291.7 215.7 291.5 215.7 291.4 215.6 C 290.9 215.4 284.7 216.8 284.7 217.2 C 284.7 217.4 284.5 217.4 284.4 217.3 C 284 217.1 277.7 218.5 277.7 218.8 C 277.7 218.9 277 219 276.1 219 L 274.6 219 L 272 211.1 C 270.5 206.8 269.4 203.1 269.4 202.8 C 269.6 202 293.4 177.5 293.9 177.7 C 294 177.8 294.1 177.8 294 177.7 C 293.6 177.2 300.9 169.3 301.4 169.7 C 301.6 169.8 300.5 167.3 300.2 166.9 C 300.2 166.9 291.2 175 280.1 184.9 M 92.4 168.2 C 92.1 169.1 97.3 175.8 98.4 175.8 C 98.5 175.8 98.7 176.2 98.8 176.6 C 99 177.1 99.2 177.4 99.3 177.4 C 99.5 177.3 118.7 196.9 122.3 200.8 L 124 202.7 L 121.3 210.8 C 119.8 215.3 118.6 219 118.5 219.1 C 118.4 219.2 116.9 218.9 115.2 218.5 C 113.5 218.1 111.9 217.8 111.7 218 C 111.5 218.1 111.4 218 111.4 217.9 C 111.4 217.5 105.2 216 104.7 216.3 C 104.5 216.4 104.4 216.4 104.4 216.2 C 104.4 215.8 98.1 214.4 97.7 214.6 C 97.5 214.8 97.4 214.7 97.4 214.5 C 97.4 214.3 96.7 214.1 95.8 214 C 94.9 213.9 92.5 213.3 90.5 212.8 L 86.7 211.9 L 86.7 212.7 C 86.7 213.7 86 213.3 104.8 221.9 C 124.7 231 123 230.5 123.2 227.6 C 123.2 227.5 123.3 227.2 123.4 227.1 C 123.9 226.8 128.7 214.7 128.5 214.4 C 128.4 214.3 128.5 214.1 128.6 214.1 C 129 214.1 131.1 209.2 130.8 208.8 C 130.7 208.6 130.8 208.5 131 208.5 C 131.1 208.5 131.8 207.3 132.3 205.9 L 133.4 203.3 L 132.3 202.3 C 128.8 198.9 93.3 167.1 93.1 167.1 C 92.9 167.1 92.6 167.6 92.4 168.2 M 179.2 172.5 C 179.9 173.2 180.6 173.8 180.7 173.8 C 180.8 173.8 180.3 173.2 179.5 172.5 C 178.8 171.7 178.2 171.1 178.1 171.1 C 178 171.1 178.5 171.7 179.2 172.5 M 193.6 173.5 C 177 175.4 166.6 193 172.8 208.5 C 181 228.7 209.3 230.2 219.4 210.8 C 228.8 192.7 214 171.1 193.6 173.5 M 173.2 175.5 C 173.9 176.2 174.6 176.8 174.7 176.8 C 174.8 176.8 174.3 176.2 173.5 175.5 C 172.8 174.7 172.2 174.1 172.1 174.1 C 172 174.1 172.5 174.7 173.2 175.5 M 200.8 184.9 C 205.7 186.4 210.3 191.4 210.9 196.2 C 211 196.9 211.2 197.5 211.3 197.5 C 211.4 197.5 211.5 198.1 211.5 199 C 211.5 199.8 211.4 200.5 211.3 200.5 C 211.2 200.5 211 201.1 210.9 201.8 C 210.3 206.5 205.7 211.6 200.8 213 C 198.9 213.6 193.3 213.8 193.6 213.3 C 193.7 213.2 193.4 213.1 192.9 213.2 C 192.4 213.3 192.1 213.3 192.2 213.2 C 192.3 213.1 191.3 212.6 190.1 211.9 C 178.7 206.2 179.8 189.3 191.8 185.2 C 192.8 184.9 193.6 184.5 193.6 184.4 C 193.2 184.1 199.2 184.5 200.8 184.9 M 132.7 193.6 C 142.6 209.7 153.2 222.6 161.9 229.1 C 163 229.9 164.5 231.1 165.2 231.8 C 165.9 232.4 164.8 230.9 162.7 228.5 C 160.6 226 158.7 223.5 158.3 223 L 157.6 222 L 159.7 223.2 C 160.9 223.9 164.4 225.8 167.5 227.5 C 170.7 229.2 173.4 230.7 173.5 230.8 C 173.7 231 174.3 231.3 174.8 231.5 C 176.2 232 175.6 231.3 173.4 229.9 C 167.3 226 164.4 223 160.7 216.4 C 158.6 212.7 158.4 212.1 159.3 212.8 C 159.8 213.2 159.7 213.2 159.2 212.5 C 158.9 212.1 158.5 211.8 158.3 211.8 C 157.5 211.8 130.8 190.1 130.4 189.1 C 130.4 188.9 130.2 188.8 130 188.8 C 129.9 188.8 131.1 191 132.7 193.6 M 261.7 190.2 C 256.6 194.8 238.5 209.5 235.1 211.8 C 234 212.5 233 213.3 232.8 213.6 C 232.7 213.8 232.9 213.7 233.3 213.3 C 234.6 212.2 234.5 213.1 232.7 216.2 C 229.1 222.6 226.6 225.4 220.9 229.2 C 219.1 230.4 217.7 231.4 217.7 231.6 C 217.7 231.9 217.2 232.1 226.4 227.1 C 230.3 225 234 223 234.7 222.6 C 235.7 222.1 235.5 222.4 233 225.5 C 228.2 231.4 226.9 232.6 221.6 236.1 C 217 239.3 215 240.7 216.4 240 C 220.2 237.9 230.6 230.1 230.4 229.4 C 230.4 229.2 230.5 229.2 230.7 229.3 C 231.4 229.7 238.1 223.6 242.9 218.1 C 249.3 210.8 259.2 196.7 263 189.6 C 263.5 188.6 263.5 188.6 261.7 190.2 M 314.5 191.1 C 314.5 192.1 314.5 192.6 314.6 192.1 C 314.7 191.6 314.7 190.7 314.6 190.2 C 314.5 189.7 314.5 190.1 314.5 191.1 M 196 190.4 C 196.4 190.5 197 190.5 197.3 190.4 C 197.6 190.3 197.3 190.2 196.5 190.2 C 195.8 190.2 195.5 190.3 196 190.4 M 164.2 196.1 C 164.2 198.2 164.2 199.1 164.3 198.1 C 164.3 197 164.3 195.3 164.3 194.2 C 164.2 193.2 164.2 194 164.2 196.1 M 307.2 197.5 C 307.2 199.9 307.2 201 307.3 199.7 C 307.3 198.5 307.3 196.5 307.3 195.2 C 307.2 194 307.2 195 307.2 197.5 M 293.8 194.7 C 293.9 194.8 293.7 195.3 293.3 195.8 L 292.5 196.6 L 293.4 195.8 C 294.2 195.1 294.4 194.5 293.8 194.5 C 293.7 194.5 293.7 194.6 293.8 194.7 M 102 198 C 103 199 103.9 199.8 104 199.8 C 104.1 199.8 103.4 199 102.4 198 C 101.4 197 100.5 196.1 100.4 196.1 C 100.3 196.1 101 197 102 198 M 314.5 198.3 C 314.5 199.4 314.5 199.8 314.6 199.2 C 314.7 198.6 314.7 197.7 314.6 197.2 C 314.5 196.7 314.5 197.2 314.5 198.3 M 286.7 202.1 L 284.9 204 L 286.8 202.1 C 288.6 200.5 288.9 200.1 288.6 200.1 C 288.6 200.1 287.7 201 286.7 202.1 M 228.8 201.6 C 228.8 202.4 228.9 202.6 228.9 202.2 C 229 201.8 229 201.2 228.9 200.9 C 228.8 200.6 228.8 200.9 228.8 201.6 M 78.8 202.5 C 78.8 203.1 78.8 203.4 78.9 203.1 C 79 202.7 79 202.2 78.9 201.9 C 78.8 201.6 78.8 201.8 78.8 202.5 M 109.4 205 C 110.4 206 111.3 206.8 111.3 206.8 C 111.4 206.8 110.7 206 109.7 205 C 108.7 204 107.8 203.1 107.7 203.1 C 107.6 203.1 108.4 204 109.4 205 M 86.1 204.8 C 86.1 205.4 86.2 205.7 86.3 205.4 C 86.3 205.1 86.3 204.5 86.3 204.2 C 86.2 203.9 86.1 204.2 86.1 204.8 M 280.2 208.1 C 279.7 208.7 279.3 209.2 279.4 209.2 C 279.5 209.3 280 208.9 280.5 208.3 C 281.7 206.9 281.5 206.8 280.2 208.1 M 196.1 207.7 C 196.4 207.8 197 207.8 197.3 207.7 C 197.6 207.6 197.3 207.5 196.7 207.5 C 196.1 207.5 195.8 207.6 196.1 207.7 M 160 213.3 C 160 213.4 161.3 214.4 162.8 215.5 C 164.3 216.6 165.7 217.7 166 217.9 C 166.2 218.1 166.4 218.1 166.4 218.1 C 166.4 218 164.9 216.8 163.2 215.5 C 161.5 214.2 160 213.2 160 213.3 M 110.5 213.7 C 110.6 213.9 110.4 214.2 110 214.2 C 109.3 214.4 109.3 214.4 110.1 214.4 C 111.1 214.5 111.3 214 110.6 213.6 C 110.4 213.5 110.4 213.5 110.5 213.7 M 102 214 C 102.4 214.1 103 214.1 103.3 214 C 103.6 214 103.3 213.9 102.5 213.9 C 101.8 213.9 101.5 214 102 214 M 135.1 214.9 C 134.7 215.6 133.8 216.6 133.2 217.2 C 132.4 218.1 128.9 222.3 127.7 224 C 127.5 224.2 128 224.9 129 225.8 L 130.5 227.3 L 129.1 225.8 L 127.7 224.3 L 130.1 221.2 C 131.5 219.5 132.6 218.2 132.7 218.2 C 133.1 218.1 140.1 229 141.2 231.1 C 142.4 233.6 141.8 236.7 139.1 240.8 L 138.6 241.6 L 137.7 239.8 C 137.2 238.8 136.7 238.1 136.7 238.3 C 136.7 238.5 137.5 240.1 138.5 241.9 L 140.3 245.2 L 142.5 241.9 C 148.8 232.4 148.8 232.2 140.8 220.3 C 136 213.3 136.2 213.4 135.1 214.9 M 255.9 215.2 C 248.8 225.5 246 230.2 246 232 C 246 234 248.5 238.8 251.8 243.4 L 253.1 245.1 L 255 241.3 C 256.1 239.2 257 237.4 257 237.3 C 257 237.1 256.5 238 255.8 239.3 C 254.5 241.9 254.6 242 252.7 238 C 250.4 233.5 250.7 232.6 256.9 223.2 C 260.8 217.4 260.3 217.7 262.4 220.3 C 263.3 221.5 264.2 222.5 264.3 222.5 C 264.4 222.5 263.2 220.9 259.2 216.2 C 256.9 213.4 257.1 213.5 255.9 215.2 M 290.3 214 C 290.7 214.1 291.3 214.1 291.6 214 C 291.9 214 291.6 213.9 290.9 213.9 C 290.1 213.9 289.9 214 290.3 214 M 224.2 219.8 C 222.2 221.3 222 221.7 223.8 220.4 C 225.2 219.5 226 218.8 225.6 218.8 C 225.6 218.8 224.9 219.3 224.2 219.8 M 172.4 222.5 C 173.4 223.4 175.4 224.6 175.4 224.4 C 175.4 224.3 174.5 223.7 173.5 223 C 172.4 222.3 171.9 222.1 172.4 222.5 M 264.8 223.3 C 265.6 224.3 265.6 224.3 263.1 226.9 C 261.2 229 257.5 234.8 258.2 234.8 C 258.2 234.8 259 233.6 259.8 232.1 C 260.6 230.4 262.1 228.4 263.5 226.9 C 266 224.3 266 224.2 265 223.3 C 264.2 222.6 264.2 222.6 264.8 223.3 M 294 224.4 C 294.2 224.5 291.9 225.9 288.7 227.5 C 275.4 234.3 274.4 235.3 269.8 244.3 C 267 249.8 263.5 257.5 263.8 257.5 C 263.9 257.5 270.2 250.8 277.7 242.7 C 285.3 234.6 292.3 227.1 293.3 226.1 C 295 224.3 295.1 224.1 294.3 224.2 C 293.9 224.2 293.7 224.3 294 224.4 M 99 225 C 99 225.1 125.8 253.9 129.1 257.3 C 129.9 258.1 129.8 257.9 127.4 252.5 C 123 242.8 119.7 237.1 117.4 235.1 C 114.7 232.8 99 224.1 99 225 M 177.4 225.6 C 177.4 225.7 177.8 226 178.4 226.3 C 178.9 226.6 179.4 226.7 179.4 226.7 C 179.4 226.6 178.9 226.3 178.4 226 C 177.8 225.7 177.4 225.5 177.4 225.6 M 212.4 227.3 C 211.2 227.9 210.3 228.4 210.5 228.5 C 210.8 228.5 214.7 226.5 214.7 226.3 C 214.7 226.1 214.8 226 212.4 227.3 M 132.9 231 C 133.4 231.9 134 232.8 134.1 233 C 134.6 233.5 133.2 230.7 132.5 230 C 132.2 229.6 132.4 230.1 132.9 231 M 153.9 232 C 154 232.5 154.2 234.2 154.4 235.6 C 157.4 257.4 162.9 270.7 171.9 277.6 C 176.6 281.3 177.1 281.5 174.3 278.6 C 167.7 271.6 167.7 271.8 164.3 260 C 163 255.5 162.9 254.2 164 255.8 C 168.7 262.8 175.3 269.6 179.1 271.4 C 182.7 273.2 183 273.1 180.2 271 C 176.4 268.2 174 265.3 171.6 260.6 C 169.2 255.9 169.1 255.2 171.1 257.7 C 175.7 263.2 178.8 265.5 183.8 266.9 C 189.3 268.5 189.3 268.6 184.4 264.5 C 182 262.5 180.1 260.8 180.3 260.7 C 180.4 260.6 184 261.8 188.2 263.3 C 192.4 264.9 196.2 266.1 196.6 266.1 C 197.1 266.1 208.5 262.2 212.5 260.6 C 213.9 260.1 212.7 261.3 208.9 264.5 C 204 268.5 204 268.4 208.1 267.3 C 213.9 265.8 218.5 262.6 222.7 257 C 224.1 255 223.7 256.6 221.5 260.8 C 219 265.7 216.9 268.2 212.7 271.3 C 210.1 273.2 210.4 273.2 214.3 271.3 C 218.1 269.5 220.1 267.6 225.4 260.8 C 227.3 258.4 229.1 256.1 229.4 255.7 C 230.5 254.4 230.3 255.3 228.5 261.3 C 225.6 271.4 225.4 271.6 219.7 277.8 L 216.9 280.9 L 219 279.5 C 229.5 272.3 234.7 261.2 238.5 237.8 C 239.6 231.2 239.6 230.5 238.6 232.1 C 229.7 246.8 224.1 252.9 218.5 254.2 C 217.5 254.4 216.7 254.7 216.7 254.8 C 216.7 255 216.4 255 216 254.9 C 215.7 254.8 215.1 254.8 214.8 255 C 214.5 255.1 213.6 255.2 213 255.2 C 212.3 255.1 211.6 255.2 211.4 255.3 C 210.9 255.6 199.8 255.6 199.5 255.4 C 199.2 255.1 193.9 255.1 193.6 255.3 C 193.3 255.6 182.2 255.6 181.7 255.3 C 181.5 255.2 180.8 255.1 180.1 255.2 C 179.4 255.2 178.6 255.1 178.3 255 C 178 254.8 177.5 254.8 177.2 254.9 C 176.9 255 176.7 255 176.7 254.9 C 176.7 254.7 175.9 254.4 175 254.2 C 171.2 253.3 167.8 250.7 163.4 245.2 C 161.1 242.3 155 233.3 155 232.7 C 155 232.6 154.9 232.5 154.7 232.6 C 154.5 232.7 154.5 232.6 154.6 232.4 C 154.7 232.1 154.5 231.7 154.2 231.5 C 153.8 231.1 153.7 231.2 153.9 232 M 293.1 234.5 C 293.1 235.8 293.2 236.4 293.3 235.7 C 293.3 235 293.3 233.9 293.3 233.2 C 293.2 232.5 293.1 233.1 293.1 234.5 M 166.7 232.9 C 166.7 233 167.2 233.4 167.7 233.8 C 168.3 234.2 168.7 234.4 168.7 234.4 C 168.7 234.3 168.3 233.9 167.7 233.5 C 167.2 233.1 166.7 232.8 166.7 232.9 M 195.7 233.1 C 196 233.2 196.2 233.8 196.2 234.4 C 196.2 235 196.3 237.6 196.3 240.1 C 196.3 243 196.5 244.8 196.7 244.8 C 196.9 244.8 197 242.6 197 239 C 197 234.9 197.1 233.2 197.4 233.1 C 197.6 233 197.2 232.9 196.5 232.9 C 195.8 232.9 195.4 233 195.7 233.1 M 134.8 234.3 C 135.3 235.6 136.4 237.8 136.5 237.8 C 136.7 237.8 135.7 235.4 135.1 234.6 C 134.9 234.3 134.7 234.1 134.8 234.3 M 169 234.6 C 169 234.7 170.6 235.8 172.5 237.1 C 176.2 239.6 177.1 240.1 176.5 239.6 C 176 239 169 234.4 169 234.6 M 127.5 237.5 C 128.4 238.4 129.3 239.1 129.3 239.1 C 129.4 239.1 128.8 238.4 127.9 237.5 C 127 236.6 126.2 235.8 126.1 235.8 C 126 235.8 126.6 236.6 127.5 237.5 M 103.9 242.2 C 101.8 254.4 97.9 261.2 91.1 265 C 89.8 265.7 88.7 266.5 88.8 266.7 C 88.9 267.2 115.4 314.2 115.5 314.1 C 115.6 314 114.8 310.6 113.8 306.5 C 107.4 279.5 104 265.4 104.2 265.2 C 104.2 265.2 106.9 266.8 110.1 268.9 C 113.2 271.1 115.9 272.8 115.9 272.7 C 115.9 272.7 114.6 268.1 113 262.6 C 111.4 257.1 110.1 252.5 110.1 252.4 C 110.2 252.2 114.2 254.8 119.1 258.1 C 127.4 263.6 128 263.9 126.6 262.4 C 125.7 261.4 124.9 260.7 124.7 260.7 C 124.5 260.8 124.4 260.7 124.5 260.6 C 124.6 260.1 121.9 257.2 121.6 257.4 C 121.4 257.5 121.4 257.4 121.5 257.2 C 121.7 256.8 120.9 256 120.6 256.4 C 120.4 256.5 120.4 256.5 120.4 256.2 C 120.6 255.7 108.7 242.8 108.3 243 C 108.1 243.1 108.1 243.1 108.1 242.9 C 108.2 242.6 105.1 238.8 104.7 238.8 C 104.6 238.8 104.2 240.3 103.9 242.2 M 285.8 241.7 C 284.4 243.2 283.2 244.7 283.3 244.9 C 283.3 245 283.2 245.1 283.1 245 C 282.7 244.8 282 245.6 282.3 246 C 282.4 246.1 282.4 246.2 282.2 246 C 281.8 245.8 279.1 248.8 279.3 249.2 C 279.3 249.4 279.2 249.4 279.1 249.3 C 278.7 249.1 275 253.3 275.3 253.6 C 275.4 253.8 275.4 253.8 275.2 253.7 C 274.7 253.4 270.6 257.9 271 258.3 C 271.1 258.5 271 258.5 270.8 258.4 C 270.4 258.1 269.6 258.9 270 259.3 C 270.1 259.4 270 259.5 269.9 259.4 C 269.7 259.4 268.4 260.4 267.1 261.8 L 264.7 264.4 L 273.9 258.2 C 279 254.9 283.1 252.1 283.2 252.2 C 283.3 252.3 282 256.8 280.3 262.3 C 278.7 267.8 277.4 272.4 277.4 272.6 C 277.4 272.7 280 271.1 283.2 268.9 C 286.4 266.8 289.1 265.1 289.2 265.2 C 289.2 265.2 288 270.8 286.4 277.5 C 284.8 284.2 282.1 295.1 280.5 301.8 C 278.9 308.5 277.5 314.2 277.3 314.4 C 277.1 314.6 277.1 314.8 277.2 314.8 C 277.5 314.8 304.2 267.7 304.6 266.5 C 304.7 266.4 303.7 265.8 302.4 265.1 C 299 263.4 295.1 259.4 293.4 255.8 C 291.5 251.8 289 242.9 289 240 C 289 238.5 288.4 238.8 285.8 241.7 M 177.5 240.3 C 177.9 240.6 178.5 241 178.9 241.2 L 179.5 241.5 L 178.9 241 C 178.5 240.7 177.9 240.3 177.5 240.1 L 176.9 239.8 L 177.5 240.3 M 214.5 240.8 C 213.3 241.6 212.9 242.1 214 241.5 C 214.7 241.1 215.9 240.2 215.7 240.2 C 215.6 240.2 215 240.5 214.5 240.8 M 180.3 242 C 181.2 242.7 184.4 244.6 184.4 244.4 C 184.4 244.3 183.7 243.8 182.8 243.3 C 181.9 242.8 180.8 242.1 180.4 241.9 L 179.5 241.4 L 180.3 242 M 209.2 244 C 205.1 246.5 197.1 250.8 196.7 250.8 C 196.3 250.8 191 248 186.2 245.3 C 185.3 244.8 184.7 244.5 184.9 244.7 C 185.3 245.3 195.4 250.8 196.3 251 C 197.1 251.2 198.6 250.4 206.8 245.7 C 210.7 243.5 211.7 242.8 211.3 242.8 C 211.2 242.8 210.3 243.3 209.2 244 M 180.5 250.4 C 181.3 250.5 182.7 250.5 183.6 250.4 C 184.5 250.3 183.8 250.3 182 250.3 C 180.3 250.3 179.6 250.3 180.5 250.4 M 209.8 250.4 C 210.7 250.5 212.1 250.5 213 250.4 C 213.8 250.3 213.1 250.3 211.4 250.3 C 209.6 250.3 208.9 250.3 209.8 250.4 M 138.2 253.6 C 133.9 263.4 134.4 270.3 140.1 279.1 C 144.5 285.7 160.7 305 158 300.4 C 146.8 280.8 142 270.5 142 265.3 C 141.9 261.5 143.8 257.2 146.1 255.3 L 147.1 254.6 L 143 253.2 L 139 251.8 L 138.2 253.6 M 250.2 253.2 L 246.2 254.5 L 247.9 256.3 C 254.4 262.9 251.4 273.2 235 300.7 C 233.3 303.6 244.3 291 249.5 284.1 C 258.9 271.7 260.2 264.3 254.9 253.4 L 254.2 251.9 L 250.2 253.2 M 156.4 256.8 C 156.4 257.5 156.6 258.3 156.7 258.8 C 156.9 259.3 156.9 259 156.8 257.8 C 156.6 255.7 156.4 255.1 156.4 256.8 M 236.7 256.5 C 236.4 257.3 236.4 258.2 236.7 257.9 C 236.9 257.7 237 257.3 236.9 256.9 C 236.8 256.6 236.7 256.4 236.7 256.5 M 236.4 264 C 235.8 272.8 226.6 284 207 299.9 C 200.1 305.5 199.1 305.8 202.3 301.2 C 204.8 297.6 205.1 297.6 199.5 301.6 C 197.7 302.8 196.5 303.4 196.3 303.3 C 196.1 303.1 194.3 301.9 192.4 300.5 C 188.6 297.8 188.6 297.8 191.6 302.1 C 194.1 305.7 193 305.3 187.2 300.7 C 167.8 285.1 160.7 277 157.5 266.6 C 157 265.1 156.6 263.8 156.5 263.9 C 156.3 264.1 157.1 269.8 157.6 271.6 C 158.6 275.6 161.1 279.2 166.6 284.7 L 170.3 288.3 L 171.2 293.6 C 171.7 296.6 172.3 299.1 172.5 299.3 C 173.2 300.1 196.5 313.6 196.8 313.5 C 197.1 313.4 220.7 299.5 221 299.3 C 221.1 299.2 221.5 296.7 222.1 293.7 L 223 288.3 L 227.1 284.1 C 234.1 277 237.5 270.1 236.6 264.3 C 236.5 263.6 236.5 263.6 236.4 264 M 167.9 279.8 C 169 280.9 169.9 281.8 170 281.8 C 170.1 281.8 169.3 280.9 168.2 279.8 C 167.1 278.7 166.1 277.8 166.1 277.8 C 166 277.8 166.8 278.7 167.9 279.8 M 157.9 286.6 C 157.9 289.2 158.1 291.7 158.3 292.1 C 158.7 292.9 158.7 292.9 158.5 292 C 158.4 291.4 158.2 288.9 158 286.5 L 157.8 282 L 157.9 286.6 M 233.9 283.6 L 232.5 285 L 234 283.6 L 235.4 282.3 L 235.3 286.5 C 235.1 289.7 234.9 291.2 234.3 293 C 233.9 294.4 233.6 295.4 233.8 295.3 C 234.9 294.6 236.5 282.1 235.5 282.1 C 235.3 282.1 234.6 282.8 233.9 283.6 M 160.4 284.6 C 161.4 285.6 162.3 286.5 162.3 286.5 C 162.4 286.5 161.7 285.6 160.7 284.6 C 159.7 283.6 158.8 282.8 158.7 282.8 C 158.6 282.8 159.4 283.6 160.4 284.6 M 230.4 286.7 L 228.5 288.6 L 230.5 286.8 C 232.2 285.1 232.5 284.8 232.3 284.8 C 232.2 284.8 231.4 285.7 230.4 286.7 M 164.4 288.3 C 165.4 289.3 166.3 290.1 166.3 290.1 C 166.4 290.1 165.7 289.3 164.7 288.3 C 163.7 287.3 162.8 286.5 162.7 286.5 C 162.6 286.5 163.4 287.3 164.4 288.3 M 226.6 290.1 C 225.7 291 225 291.9 225.1 292.2 C 225.3 292.5 225.3 292.5 225.3 292.1 C 225.4 291.9 226.1 290.9 226.9 290.1 C 227.8 289.2 228.4 288.5 228.3 288.5 C 228.3 288.5 227.5 289.2 226.6 290.1 M 160 296 C 160.2 296.3 160.7 297 161.3 297.5 L 162.2 298.3 L 161.2 297.1 C 159.6 295.3 159.6 295.3 160 296 M 134.8 297.1 C 129.4 298.6 123.5 301.5 124.4 302.3 C 124.7 302.5 131.7 306.6 140 311.3 C 148.4 316 155.7 320.2 156.4 320.6 L 157.5 321.2 L 156.7 320.4 C 156.2 320 154.8 318.7 153.5 317.5 C 151.3 315.4 144 308.6 139.9 304.7 C 138.6 303.5 138 302.7 138.2 302.5 C 139.1 301.7 145.8 300.7 149.7 300.9 C 154.2 301.2 154.2 301 149.5 298.8 C 144.6 296.4 139.6 295.9 134.8 297.1 M 247.7 297.3 C 245.3 298 241.8 299.6 240.4 300.6 C 239.8 301 240.3 301 244.5 301 C 250.8 301 256.4 302.1 255 303.2 C 254.7 303.5 252.1 305.8 249.3 308.5 C 246.5 311.2 243.1 314.4 241.7 315.6 C 238.6 318.5 235.7 321.4 236.4 320.9 C 236.6 320.7 244.2 316.4 253.1 311.3 L 269.4 302.1 L 268.2 301.2 C 262.3 297.2 253.5 295.5 247.7 297.3 M 230.9 298.5 C 229.9 299.4 227.9 301.2 226.3 302.4 C 222.9 304.9 222.4 305.5 225.4 303.4 C 227.3 302.1 233.1 296.8 232.7 296.8 C 232.6 296.8 231.8 297.6 230.9 298.5 M 163.2 299.6 C 163.9 300.3 165.1 301.3 165.9 301.8 C 166.9 302.6 166.8 302.5 165.5 301.3 C 164.6 300.5 163.4 299.5 162.9 299.1 C 162.2 298.6 162.3 298.8 163.2 299.6 M 167.4 303 C 167.4 303.2 170.4 305.2 170.5 305.1 C 170.6 305 169.9 304.5 169 303.9 C 168.1 303.3 167.4 302.9 167.4 303 M 173.8 311.8 C 174.1 316.8 176 318.7 189.5 327.6 C 195.9 331.9 196.5 332.2 197.3 331.8 C 201.2 330 216.2 319.1 217.6 317 C 219.3 314.5 220.2 311 219.4 309.8 C 219.1 309.4 213.4 311.5 213.4 312.1 C 213.4 312.2 213.1 312.4 212.8 312.4 C 212.5 312.4 208.8 313.9 204.7 315.8 C 200.7 317.6 197 319.1 196.6 319.1 C 196.1 319.1 192.1 317.5 185.2 314.3 C 183.7 313.6 182.3 313.1 182 313 C 181.6 313 181.4 312.9 181.4 312.8 C 181.4 312.5 175.8 310 175.2 310 C 174.9 310 174.7 309.9 174.7 309.8 C 174.7 309.7 174.5 309.6 174.2 309.6 C 173.7 309.6 173.6 309.9 173.8 311.8 M 122.6 332 C 122.4 332.5 122.4 332.9 122.5 333 C 122.6 333.1 122.7 332.8 122.8 332.3 C 123 331.8 123 331.3 122.9 331.3 C 122.8 331.2 122.7 331.5 122.6 332 M 271.4 335.6 C 271.4 336 271.5 336.6 271.7 337 C 272.1 337.8 272.1 336.9 271.7 335.8 C 271.5 335.1 271.4 335.1 271.4 335.6" stroke="none" fill="#0c4a79" fill-rule="evenodd"></path><path transform="matrix(1.4,0,0,1.2,-67.2,-37.9)" id="path4" d="M 287.1 62.6 C 288 63.6 288.8 64.3 288.9 64.3 C 289 64.3 288.3 63.6 287.4 62.6 C 286.5 61.7 285.7 61 285.6 61 C 285.5 61 286.2 61.7 287.1 62.6 M 110.9 66.5 C 110.1 67.3 109.5 68 109.6 68 C 109.7 68 110.4 67.3 111.2 66.5 C 112 65.7 112.6 65 112.5 65 C 112.4 65 111.7 65.7 110.9 66.5 M 293.1 70.3 C 293.3 70.9 293.7 71.3 293.7 71.3 C 293.8 71.3 293.7 70.9 293.4 70.3 C 293.1 69.8 292.8 69.3 292.7 69.3 C 292.6 69.3 292.8 69.8 293.1 70.3 M 100.4 71.3 C 99.9 72.3 99.6 73.1 99.6 73.2 C 99.7 73.2 100.2 72.5 100.7 71.5 C 101.2 70.5 101.5 69.6 101.4 69.6 C 101.3 69.6 100.9 70.4 100.4 71.3 M 101 95.5 C 101 96.2 101 96.5 101.1 96.1 C 101.2 95.6 101.2 95 101.1 94.7 C 101 94.4 101 94.7 101 95.5 M 101 102 C 101 102.6 101 102.9 101.1 102.6 C 101.2 102.2 101.2 101.7 101.1 101.4 C 101 101.1 101 101.3 101 102 M 130.7 113 C 130.7 114.4 130.7 114.9 130.8 114.2 C 130.9 113.5 130.9 112.4 130.8 111.7 C 130.7 111 130.7 111.6 130.7 113 M 196 114.1 L 195.1 115.1 L 196.2 114.1 C 196.9 113.6 197.5 113.1 197.5 113.1 C 197.6 113 197.5 113 197.3 113 C 197.2 113 196.6 113.5 196 114.1 M 199.7 116 C 200.8 117.1 201.8 118 201.9 118 C 202 118 201.1 117.1 200.1 116 C 199 114.9 198 114 197.9 114 C 197.8 114 198.6 114.9 199.7 116 M 226.2 116.1 C 226.2 116.1 226.7 116.6 227.3 117.2 L 228.4 118.1 L 227.4 117.1 C 226.5 116.1 226.2 115.8 226.2 116.1 M 192 118.4 L 190.1 120.5 L 192.1 118.5 C 193.3 117.4 194.2 116.5 194.2 116.4 C 194.2 116.2 193.9 116.5 192 118.4 M 204.7 121.3 C 205.8 122.4 206.8 123.3 206.9 123.3 C 207 123.3 206.1 122.4 205.1 121.3 C 204 120.2 203 119.3 202.9 119.3 C 202.8 119.3 203.6 120.2 204.7 121.3 M 187 123.7 L 185.1 125.8 L 187.1 123.8 C 188.3 122.7 189.2 121.8 189.2 121.7 C 189.2 121.5 188.9 121.8 187 123.7 M 176.8 124.7 C 176.1 125 175.6 125.4 175.6 125.5 C 175.6 125.6 176.1 125.4 176.9 125 C 177.6 124.6 178.2 124.4 178.4 124.6 C 178.5 124.7 178.6 124.6 178.6 124.4 C 178.6 123.8 178.3 123.9 176.8 124.7 M 215.9 124.7 C 216 125.3 216 125.3 216.1 124.9 C 216.2 124.4 216.4 124.4 217 124.7 C 217.7 125 217.7 125 217.1 124.5 C 216.2 123.8 215.9 123.8 215.9 124.7 M 209.5 126.3 C 210.5 127.4 211.1 128.3 211 128.5 C 210.8 128.6 210.9 128.7 211.1 128.5 C 211.3 128.4 211.6 128.5 211.7 128.7 C 211.8 129 211.9 129 211.9 128.8 C 211.9 128.6 211 127.6 209.8 126.5 L 207.7 124.5 L 209.5 126.3 M 217.9 125.1 C 217.9 125.2 218.3 125.5 218.9 125.8 C 219.4 126.1 219.9 126.3 219.9 126.2 C 219.9 126.1 219.4 125.8 218.9 125.5 C 218.3 125.2 217.9 125 217.9 125.1 M 189 125.8 C 188.9 126.1 188.7 126.2 188.5 126.1 C 188.4 126 188 126.1 187.6 126.3 C 187.3 126.5 187.2 126.6 187.5 126.6 C 187.7 126.6 187.8 126.8 187.7 127 C 187.5 127.3 187.6 127.3 187.8 127.2 C 188.1 127 188.1 126.8 188 126.6 C 187.9 126.3 188 126.3 188.3 126.4 C 188.6 126.5 189.2 126.3 189.6 126 C 190.3 125.4 190.3 125.3 189.8 125.3 C 189.5 125.3 189.1 125.5 189 125.8 M 204.6 125.8 C 205.3 126.7 206.1 127 206.1 126.5 C 206.1 126.2 206 126 206 126.1 C 205.9 126.2 205.6 126.1 205.3 125.8 C 204.7 125.1 204 125.2 204.6 125.8 M 173.6 126.5 C 172.9 127 172.2 127.4 172.2 127.5 C 172.2 127.7 174.5 126.4 175 125.9 C 175.6 125.4 175.1 125.6 173.6 126.5 M 183.1 128 C 182 129.1 182.2 129.2 183.6 128.5 C 184 128.2 184.2 128 183.9 128 C 183.6 128 183.6 127.9 183.9 127.5 C 184.6 126.6 184.1 126.9 183.1 128 M 169.8 129.2 C 168.8 130 167.9 130.7 167.9 130.8 C 167.9 130.9 168.8 130.3 169.9 129.4 C 171.7 128.1 172.1 127.6 171.8 127.6 C 171.8 127.6 170.9 128.3 169.8 129.2 M 222.9 128.1 C 222.9 128.2 223.4 128.7 224.1 129.2 C 224.8 129.7 225.2 129.9 225.1 129.7 C 224.8 129.3 222.9 127.9 222.9 128.1 M 209.9 129.4 C 209.9 129.5 210.7 130.2 211.6 131 C 212.6 131.8 213.2 132.2 212.9 131.9 C 212.4 131.2 209.9 129.2 209.9 129.4 M 298.3 130.5 C 298.3 131.2 298.4 131.5 298.5 131.1 C 298.5 130.6 298.5 130 298.5 129.7 C 298.4 129.4 298.3 129.7 298.3 130.5 M 226.9 131.4 C 227.7 132.3 228.4 133 228.5 133 C 228.7 133 228.4 132.7 227 131.3 L 225.4 129.8 L 226.9 131.4 M 180 133.1 L 178.4 134.8 L 180.1 133.2 C 181.8 131.6 182 131.3 181.8 131.3 C 181.7 131.3 181 132.1 180 133.1 M 165.3 133.6 C 164.4 134.9 163.3 137.9 163.7 138.2 C 163.8 138.3 164 137.6 164.2 136.7 C 164.4 135.7 165.1 134.4 165.6 133.7 C 166.1 132.9 166.5 132.3 166.4 132.3 C 166.3 132.3 165.8 132.9 165.3 133.6 M 229.1 134.1 C 229.9 135.5 229.9 135.5 229.9 135.1 C 229.9 134.9 229.6 134.4 229.2 133.9 L 228.5 133.1 L 229.1 134.1 M 216.1 135.3 C 216.8 136 217.4 136.6 217.5 136.6 C 217.6 136.6 217.1 136 216.4 135.3 C 215.7 134.6 215 134 214.9 134 C 214.8 134 215.3 134.6 216.1 135.3 M 176.9 136.5 C 176.3 137.1 176 137.2 175.8 136.9 C 175.6 136.6 175.6 136.6 175.6 137.1 C 175.6 137.9 176 137.8 177.1 136.6 C 177.6 136.1 177.9 135.6 177.8 135.6 C 177.8 135.6 177.3 136 176.9 136.5 M 230.3 137 C 230.3 137.8 230.8 139.3 230.8 138.5 C 230.8 138.1 230.7 137.5 230.6 137.1 C 230.4 136.7 230.3 136.7 230.3 137 M 298.3 138.3 C 298.3 139.1 298.4 139.5 298.5 139.1 C 298.5 138.7 298.5 138 298.5 137.6 C 298.4 137.2 298.3 137.5 298.3 138.3 M 141.6 138.8 C 142.2 139.5 142.8 140 142.9 140 C 142.9 140 142.5 139.5 141.9 138.8 C 141.3 138.2 140.7 137.6 140.6 137.6 C 140.5 137.6 140.9 138.2 141.6 138.8 M 162.9 140.5 C 162.7 141.5 162.6 142.4 162.6 142.5 C 162.7 142.6 163 141.8 163.2 140.8 C 163.4 139.8 163.6 138.9 163.5 138.8 C 163.4 138.7 163.1 139.5 162.9 140.5 M 230.9 139.5 C 230.9 140.2 233.2 150.4 233.2 149.9 C 233.2 149.3 231.2 139.6 231 139.3 C 231 139.3 230.9 139.3 230.9 139.5 M 82.9 142.4 C 83 142.5 83.5 142.8 84.1 143.1 L 85.1 143.7 L 84.3 143 C 83.8 142.6 83.3 142.3 83.1 142.3 C 82.9 142.3 82.8 142.4 82.9 142.4 M 86.6 145.3 C 89.7 148.2 91.2 149.3 91.4 149 C 91.5 148.8 91.5 148.7 91.3 148.7 C 91.1 148.8 90.1 148.1 89 147.1 C 86.2 144.8 84.8 143.7 86.6 145.3 M 161.1 149.5 C 160.8 151.3 160.5 152.7 160.6 152.8 C 160.7 152.9 161 151.5 161.4 149.8 C 161.7 148 161.9 146.5 161.8 146.5 C 161.7 146.4 161.4 147.8 161.1 149.5 M 304.6 147.8 C 304 148.4 303.3 148.9 303.1 148.8 C 302.9 148.6 302.9 148.7 303 149 C 303.2 149.3 303.7 149 304.7 148.1 C 305.4 147.4 306.1 146.8 306.2 146.7 C 306.3 146.7 306.2 146.6 306 146.6 C 305.8 146.6 305.2 147.2 304.6 147.8 M 233.6 153 C 233.6 153.4 233.8 154.3 233.9 154.8 C 234.1 155.7 234.1 155.7 234.1 155 C 234.1 154.5 234 153.7 233.9 153.1 C 233.7 152.3 233.6 152.2 233.6 153 M 159.9 155.8 C 159.7 157.2 159.6 158.4 159.7 158.5 C 159.7 158.6 160 157.5 160.2 156.1 C 160.4 154.7 160.6 153.5 160.5 153.4 C 160.4 153.4 160.1 154.4 159.9 155.8 M 295.9 157.8 C 295.9 157.8 296.4 158.3 297 158.8 L 298.1 159.8 L 297.1 158.7 C 296.2 157.7 295.9 157.5 295.9 157.8 M 234.7 159.1 C 234.9 160.8 235 160.9 237.7 160.6 L 240.1 160.4 L 237.6 160.4 L 235.2 160.5 L 234.9 159.2 L 234.6 157.8 L 234.7 159.1 M 159.2 159.6 C 159.1 160.5 159 160.5 156.6 160.4 L 154.1 160.4 L 156.6 160.6 C 159.3 160.9 159.7 160.8 159.5 159.6 L 159.4 158.8 L 159.2 159.6 M 92.3 170.4 C 92.3 170.4 93.3 171.3 94.4 172.3 L 96.4 174.1 L 94.6 172.2 C 93.6 171.2 92.6 170.3 92.4 170.3 C 92.3 170.3 92.2 170.4 92.3 170.4 M 298.4 173.7 L 295.1 177.1 L 298.4 173.9 C 300.3 172.1 301.9 170.7 302 170.9 C 302.2 171 302.2 171 302.1 170.7 C 301.8 170.2 302.1 169.9 298.4 173.7 M 315 189.3 C 315 190 315 190.2 315.1 189.9 C 315.2 189.6 315.2 189.1 315.1 188.7 C 315 188.4 315 188.7 315 189.3 M 86.6 193.6 C 86.6 194.3 86.7 194.6 86.8 194.2 C 86.9 193.9 86.9 193.4 86.8 193.1 C 86.7 192.7 86.6 193 86.6 193.6 M 98.6 194.9 C 98.6 195.1 99 195.6 99.6 196.2 L 100.7 197.1 L 99.8 196.1 C 99.3 195.6 99 195 99.1 194.9 C 99.2 194.8 99.2 194.6 98.9 194.6 C 98.7 194.6 98.6 194.8 98.6 194.9 M 291 199.4 L 289.1 201.5 L 291.1 199.5 C 292.3 198.4 293.2 197.5 293.2 197.4 C 293.2 197.2 292.9 197.5 291 199.4 M 106.2 202.5 C 107.2 203.5 108.1 204.3 108.2 204.3 C 108.3 204.3 107.6 203.5 106.6 202.5 C 105.6 201.5 104.7 200.6 104.6 200.6 C 104.5 200.6 105.2 201.5 106.2 202.5 M 315 202 C 315 202.6 315 202.9 315.1 202.6 C 315.2 202.2 315.2 201.7 315.1 201.4 C 315 201.1 315 201.3 315 202 M 86.7 203.3 C 86.7 204.1 86.7 204.5 86.8 204.1 C 86.9 203.7 86.9 203 86.8 202.6 C 86.7 202.2 86.7 202.5 86.7 203.3 M 283.5 206.6 L 281.7 208.5 L 283.6 206.7 C 285.4 205 285.7 204.6 285.5 204.6 C 285.4 204.6 284.6 205.5 283.5 206.6 M 307.3 207.6 C 307.3 208.3 307.4 208.6 307.5 208.2 C 307.5 207.9 307.5 207.4 307.5 207.1 C 307.4 206.7 307.3 207 307.3 207.6 M 111.9 207.8 C 111.9 207.8 112.4 208.3 113 208.8 L 114.1 209.8 L 113.1 208.7 C 112.2 207.7 111.9 207.5 111.9 207.8 M 87.4 212.6 C 87.6 212.8 88.3 213 88.9 213.1 C 90.1 213.3 89.9 213.2 88.1 212.6 C 87.4 212.4 87.2 212.4 87.4 212.6 M 300.9 214 C 300.2 214.2 300.2 214.2 300.7 214.2 C 301.1 214.2 301.8 214.1 302.2 214 C 302.9 213.8 302.9 213.7 302.4 213.7 C 302 213.7 301.4 213.8 300.9 214 M 95.7 214.6 C 96.5 214.6 97.9 214.6 98.7 214.6 C 99.4 214.5 98.7 214.4 97.1 214.4 C 95.4 214.4 94.8 214.5 95.7 214.6 M 295.7 214.6 C 296.5 214.6 297.9 214.6 298.7 214.6 C 299.4 214.5 298.7 214.4 297.1 214.4 C 295.4 214.4 294.8 214.5 295.7 214.6 M 105.1 214.9 C 105.7 215 106.7 215 107.3 214.9 C 107.9 214.8 107.4 214.8 106.2 214.8 C 105 214.8 104.5 214.8 105.1 214.9 M 287.1 214.9 C 287.7 215 288.7 215 289.3 214.9 C 289.9 214.8 289.4 214.8 288.2 214.8 C 287 214.8 286.5 214.8 287.1 214.9 M 292.8 226 C 292.9 226.3 292.8 226.4 292.4 226.2 C 292.1 226.1 291.9 226.1 292 226.3 C 292.1 226.4 291.3 227 290.2 227.5 C 289.1 228 288.1 228.6 288 228.7 C 287.9 228.9 289.1 228.4 290.7 227.6 C 293.2 226.4 294 225.6 292.9 225.6 C 292.7 225.6 292.6 225.8 292.8 226 M 106.2 228.8 C 106.2 228.9 106.8 229.3 107.6 229.6 C 108.3 230 108.9 230.3 108.9 230.2 C 108.9 230.1 108.3 229.7 107.6 229.3 C 106.8 228.9 106.2 228.7 106.2 228.8 M 284.8 230.3 C 284.1 230.7 283.6 231.1 283.6 231.2 C 283.6 231.3 284.2 231 284.9 230.6 C 285.6 230.3 286.2 229.9 286.2 229.8 C 286.2 229.6 286.2 229.6 284.8 230.3 M 277.6 234.7 C 276.8 235.2 276.2 235.7 276.2 235.8 C 276.2 236 278.1 234.7 279 233.9 C 279.8 233.2 278.9 233.7 277.6 234.7 M 118.6 236.5 C 119.2 237.1 119.8 237.6 119.9 237.6 C 119.9 237.6 119.5 237.1 118.9 236.5 C 118.3 235.8 117.7 235.3 117.6 235.3 C 117.5 235.3 117.9 235.8 118.6 236.5 M 266 238.4 L 264.4 240.1 L 266.1 238.5 C 267.8 237 268 236.6 267.8 236.6 C 267.7 236.6 267 237.4 266 238.4 M 177.5 250.9 C 177.9 251 178.5 251 178.8 250.9 C 179.1 250.8 178.8 250.7 178.1 250.7 C 177.3 250.7 177.1 250.8 177.5 250.9 M 215.8 250.9 C 216.2 251 216.8 251 217.1 250.9 C 217.5 250.8 217.1 250.7 216.4 250.7 C 215.7 250.7 215.4 250.8 215.8 250.9 M 110.6 253.5 C 110.6 253.8 110.7 253.9 110.9 253.8 C 111.1 253.7 115 256.2 119.7 259.3 C 124.4 262.4 128.2 264.9 128.2 264.8 C 128.2 264.7 112.7 254.2 111 253.2 C 110.7 253 110.6 253.1 110.6 253.5 M 274.8 258.8 C 270 262 266 264.8 265.8 265 C 265.6 265.2 269.5 262.7 274.4 259.4 C 279.4 256.1 283.6 253.4 283.7 253.6 C 283.8 253.7 283.9 253.6 283.9 253.4 C 283.9 252.7 283.6 252.9 274.8 258.8 M 163.6 256.5 C 163.6 256.8 163.7 257 163.8 256.9 C 163.9 256.7 164.3 256.9 164.7 257.2 C 165.3 257.8 165.3 257.8 164.7 256.9 C 164.1 255.9 163.6 255.7 163.6 256.5 M 229.9 256.5 C 229.6 256.9 229.6 257 229.8 256.9 C 230 256.7 230.2 256.9 230.3 257.2 C 230.4 257.6 230.5 257.5 230.6 256.9 C 230.8 255.9 230.5 255.7 229.9 256.5 M 170 257.4 C 170 257.6 170.4 257.8 170.7 257.8 C 171.1 257.9 171.2 257.8 170.9 257.5 C 170.4 256.9 169.8 256.8 170 257.4 M 222.9 258.1 C 222.3 258.9 222.2 259 222.8 258.6 C 223.1 258.2 223.6 258.1 223.7 258.2 C 223.9 258.4 223.9 258.3 223.8 258.1 C 223.6 257.8 223.7 257.6 223.9 257.6 C 224.1 257.6 224.2 257.5 224.2 257.3 C 224.2 256.7 223.7 257 222.9 258.1 M 166.2 259.3 C 166.8 260 167.4 260.6 167.4 260.6 C 167.5 260.6 167.1 260 166.6 259.3 C 166 258.6 165.4 258 165.3 258 C 165.2 258 165.6 258.6 166.2 259.3 M 171.2 258.4 C 171.2 258.5 171.7 259 172.3 259.5 L 173.4 260.5 L 172.4 259.4 C 171.5 258.4 171.2 258.2 171.2 258.4 M 227.2 260 C 226.6 260.7 226.2 261.3 226.3 261.3 C 226.4 261.3 227 260.7 227.6 260 C 228.1 259.2 228.5 258.6 228.4 258.6 C 228.4 258.6 227.8 259.2 227.2 260 M 237 259.1 C 236.9 259.4 237 260 237.2 260.6 C 237.5 261.4 237.5 261.4 237.5 260.1 C 237.6 258.6 237.4 258.3 237 259.1 M 218.6 262.7 C 216.6 264.6 215.5 265.8 216.1 265.4 C 217.1 264.7 222.5 259.3 222.2 259.3 C 222.1 259.3 220.5 260.9 218.6 262.7 M 174.9 262.4 C 176.3 263.9 176.6 264.1 176.6 263.9 C 176.6 263.8 175.8 263.1 175 262.3 L 173.4 260.8 L 174.9 262.4 M 157 262.3 C 157 263 157 263.2 157.1 262.9 C 157.2 262.6 157.2 262.1 157.1 261.7 C 157 261.4 157 261.7 157 262.3 M 180.7 261.6 C 180.6 261.7 181.3 262 182.1 262.2 C 184.2 262.7 184.4 262.5 182.4 261.9 C 181.6 261.6 180.9 261.5 180.7 261.6 M 212.6 261.6 C 212.2 261.9 212.2 262 212.5 262 C 212.9 262 212.9 262.1 212.5 262.6 C 212.2 263 212.2 263 212.8 262.5 C 213.9 261.6 213.7 260.9 212.6 261.6 M 210 262.5 C 209.2 262.8 208.6 263.1 208.6 263.2 C 208.8 263.3 211.9 262.3 211.9 262.1 C 211.9 261.9 211.5 262 210 262.5 M 184.2 262.7 C 184.2 263 188.3 264.3 188.5 264.2 C 188.5 264.1 187.8 263.8 186.8 263.5 C 185.9 263.1 184.9 262.8 184.6 262.7 C 184.4 262.6 184.2 262.7 184.2 262.7 M 165.6 263.3 C 165.6 263.6 165.7 264.1 165.9 264.5 C 166.1 264.9 166.2 265 166.2 264.6 C 166.2 264.4 166.1 263.8 165.9 263.5 C 165.7 263.1 165.6 263 165.6 263.3 M 205.8 264 C 204.7 264.4 203.9 264.8 204 264.8 C 204.1 265 208.2 263.7 208.2 263.5 C 208.2 263.2 207.8 263.3 205.8 264 M 170.2 264.4 C 170.2 264.5 170.7 265 171.3 265.5 L 172.4 266.5 L 171.4 265.4 C 170.5 264.4 170.2 264.2 170.2 264.4 M 189.7 264.8 C 190.3 265 191.1 265.3 191.6 265.4 C 192.2 265.6 192.2 265.6 191.4 265.2 C 190.8 264.9 190 264.6 189.6 264.5 C 188.9 264.4 188.9 264.4 189.7 264.8 M 201.6 265.5 C 200.8 265.8 200.2 266.1 200.3 266.2 C 200.5 266.3 203.6 265.3 203.6 265.1 C 203.6 264.9 203.2 265 201.6 265.5 M 222 266.4 L 221.1 267.5 L 222.1 266.5 C 222.7 266 223.2 265.5 223.2 265.4 C 223.2 265.2 223 265.4 222 266.4 M 178.9 265.8 C 178.9 266 180.9 267.1 181.1 266.9 C 181.2 266.8 180.7 266.5 180.1 266.2 C 179.4 265.9 178.9 265.7 178.9 265.8 M 192.6 265.8 C 192.6 266.4 197.3 267.4 198.6 267 C 199.3 266.8 199.9 266.5 199.8 266.5 C 199.8 266.4 199.1 266.5 198.5 266.7 C 197.3 267.1 195.8 266.8 193 265.7 C 192.7 265.6 192.6 265.7 192.6 265.8 M 104.6 266.6 C 104.6 266.9 104.7 267 104.8 266.7 C 104.9 266.5 107 267.7 110.4 270 C 113.5 272 116.2 273.8 116.5 273.9 C 116.8 274 114.3 272.3 111 270 C 104.3 265.6 104.5 265.7 104.6 266.6 M 283.7 269.8 C 280.1 272.2 277.9 273.5 277.8 273.2 C 277.7 273 277.6 273.1 277.6 273.5 C 277.6 274.1 278.5 273.6 283.4 270.3 C 286.7 268.1 289.5 266.4 289.6 266.5 C 289.8 266.6 289.9 266.5 289.9 266.3 C 289.9 265.7 289.4 265.9 283.7 269.8 M 177.1 268.6 C 178.3 269.9 179.5 271 179.5 271 C 179.6 271 178.7 269.9 177.4 268.6 C 176.1 267.4 175 266.3 174.9 266.3 C 174.8 266.3 175.8 267.4 177.1 268.6 M 173.9 268.5 C 174.9 269.5 175.8 270.3 175.9 270.3 C 176 270.3 175.2 269.5 174.2 268.5 C 173.2 267.5 172.3 266.6 172.2 266.6 C 172.2 266.6 172.9 267.5 173.9 268.5 M 181.9 267.3 C 182.6 267.7 187.2 269 187.9 269 C 188.2 268.9 187.2 268.6 185.7 268.2 C 184.3 267.8 182.7 267.3 182.2 267.2 C 181.6 267 181.5 267 181.9 267.3 M 217.2 268.5 C 216.4 269.3 215.8 270 215.9 270 C 216 270 216.8 269.3 217.6 268.5 C 218.4 267.7 219 267 218.9 267 C 218.8 267 218 267.7 217.2 268.5 M 209.4 268 C 209 268.2 208.9 268.3 209.2 268.3 C 209.5 268.3 210 268.1 210.4 268 C 210.8 267.8 210.9 267.7 210.6 267.7 C 210.3 267.7 209.8 267.8 209.4 268 M 205.1 268.6 C 204.4 269.4 204.9 269.5 206.6 269 C 207.3 268.7 207.2 268.7 206.3 268.8 C 205.3 269 205.2 268.9 205.6 268.5 C 206.2 267.7 205.8 267.9 205.1 268.6 M 217.9 270.4 C 216.3 271.7 211.5 273.8 212.1 273 C 212.2 272.7 212.2 272.6 211.9 272.8 C 211.7 272.9 211.7 273.2 211.8 273.4 C 211.9 273.6 211.8 273.7 211.5 273.6 C 211.2 273.4 210.7 273.6 210.5 273.9 C 209.5 275.1 217.2 271.6 218.4 270.3 C 219.2 269.5 219 269.5 217.9 270.4 M 234.6 271.2 C 234.1 272.4 234.2 272.6 234.8 271.5 C 235 271 235.2 270.5 235.1 270.5 C 235.1 270.4 234.8 270.7 234.6 271.2 M 159.2 270.8 C 159.2 271.1 161.2 275 161.4 275 C 161.5 275 161.1 274 160.5 272.9 C 159.4 270.7 159.2 270.4 159.2 270.8 M 178.2 271.9 C 178.2 272.1 181.9 273.7 182.1 273.6 C 182.2 273.5 181.3 273 180.2 272.6 C 179.1 272.1 178.2 271.8 178.2 271.9 M 168.9 272.5 C 169 272.9 169.9 274 170.8 274.9 C 171.8 275.9 171.9 276 171.2 275.1 C 170.6 274.4 169.7 273.4 169.3 272.8 C 168.9 272.3 168.7 272.1 168.9 272.5 M 182.6 273.4 C 182.7 273.8 183.9 274.4 184.1 274.2 C 184.2 274.1 183.9 273.8 183.4 273.5 C 182.8 273.1 182.6 273.1 182.6 273.4 M 233.1 274.3 C 232.8 274.9 232.6 275.3 232.7 275.3 C 232.8 275.3 233.1 274.9 233.4 274.3 C 233.7 273.8 233.8 273.3 233.7 273.3 C 233.7 273.3 233.3 273.8 233.1 274.3 M 221.7 276.7 L 220.1 278.5 L 221.8 276.8 C 222.8 275.9 223.6 275.1 223.6 275.1 C 223.6 274.8 223.3 275.1 221.7 276.7 M 175.1 279.6 C 176.7 281.3 178.1 282.6 178.2 282.6 C 178.3 282.6 177 281.3 175.4 279.6 C 173.8 278 172.3 276.6 172.2 276.6 C 172.1 276.6 173.4 278 175.1 279.6 M 225.9 280.6 L 223.7 282.8 L 226 280.7 C 227.2 279.5 228.2 278.5 228.2 278.4 C 228.2 278.2 227.9 278.5 225.9 280.6 M 229.9 279.3 C 229.5 279.9 229.3 280.3 229.3 280.3 C 229.4 280.3 229.8 279.9 230.2 279.3 C 230.6 278.8 230.9 278.3 230.8 278.3 C 230.7 278.3 230.3 278.8 229.9 279.3 M 218.4 280.4 L 216.7 282.1 L 218.5 280.5 C 219.4 279.6 220.2 278.8 220.2 278.7 C 220.2 278.5 219.9 278.8 218.4 280.4 M 164.6 280 C 164.9 280.5 165.4 281.1 165.6 281.2 C 165.8 281.3 165.6 280.9 165.1 280.2 C 164 278.7 163.5 278.6 164.6 280 M 226 284.1 L 224.7 285.5 L 226.1 284.2 C 227.5 282.9 227.7 282.6 227.5 282.6 C 227.4 282.6 226.8 283.3 226 284.1 M 169.9 286.1 C 171.1 287.3 172.1 288.3 172.2 288.3 C 172.3 288.3 171.4 287.3 170.2 286.1 C 169 285 168 284 167.9 284 C 167.8 284 168.7 285 169.9 286.1 M 222.4 287.7 L 220.4 289.8 L 222.5 287.8 C 223.6 286.7 224.6 285.8 224.6 285.7 C 224.6 285.5 224.2 285.8 222.4 287.7 M 172.9 288.8 C 172.9 288.8 173.4 289.3 174 289.8 L 175.1 290.8 L 174.1 289.7 C 173.2 288.7 172.9 288.5 172.9 288.8 M 218.7 291.1 L 217.7 292.1 L 218.8 291.2 C 219.4 290.6 219.9 290.1 219.9 290.1 C 219.9 289.8 219.6 290.1 218.7 291.1 M 175.6 291.1 C 175.6 291.1 176 291.6 176.6 292.2 L 177.7 293.1 L 176.7 292.1 C 175.8 291.1 175.6 290.8 175.6 291.1 M 216.4 293.1 L 215.4 294.1 L 216.5 293.2 C 217.1 292.6 217.6 292.1 217.6 292.1 C 217.6 291.8 217.3 292.1 216.4 293.1 M 177.9 293.1 C 177.9 293.1 178.4 293.6 179 294.2 L 180.1 295.1 L 179.1 294.1 C 178.2 293.1 177.9 292.8 177.9 293.1 M 180.2 295.1 C 180.2 295.1 180.7 295.6 181.3 296.2 L 182.4 297.1 L 181.4 296.1 C 180.5 295.1 180.2 294.8 180.2 295.1 M 189.2 299.2 C 189.5 299.4 189.7 299.6 189.8 299.5 C 189.9 299.4 190.2 299.5 190.5 299.7 C 191 300.1 191 300.1 190.6 299.6 C 190.4 299.2 190 299.1 189.9 299.2 C 189.7 299.3 189.6 299.2 189.6 299 C 189.6 298.8 189.4 298.6 189.2 298.6 C 188.9 298.6 188.9 298.8 189.2 299.2 M 204.3 299.1 C 204 299.4 204 299.7 204.2 299.8 C 204.4 299.9 204.6 299.8 204.7 299.7 C 204.8 299.5 204.8 299.3 204.7 299.3 C 204.5 299.3 204.6 299.2 204.9 299 C 205.2 298.8 205.2 298.7 205 298.7 C 204.8 298.7 204.5 298.9 204.3 299.1 M 201.9 303.3 C 201.5 303.9 201.3 304.3 201.3 304.3 C 201.4 304.3 201.8 303.9 202.2 303.3 C 202.6 302.8 202.9 302.3 202.8 302.3 C 202.7 302.3 202.3 302.8 201.9 303.3 M 295.7 308.6 C 295.4 309.2 295.3 309.6 295.4 309.6 C 295.5 309.6 295.8 309.2 296.1 308.6 C 296.3 308.1 296.5 307.6 296.4 307.6 C 296.3 307.6 296 308.1 295.7 308.6 M 99.7 311.3 C 100 311.9 100.3 312.3 100.4 312.3 C 100.5 312.3 100.3 311.9 100.1 311.3 C 99.8 310.8 99.5 310.3 99.4 310.3 C 99.3 310.3 99.4 310.8 99.7 311.3 M 294.1 311.6 C 293.8 312.2 293.6 312.6 293.7 312.6 C 293.8 312.6 294.1 312.2 294.4 311.6 C 294.7 311.1 294.8 310.6 294.7 310.6 C 294.7 310.6 294.3 311.1 294.1 311.6 M 101.4 314.3 C 101.7 314.9 102 315.3 102.1 315.3 C 102.2 315.3 102 314.9 101.7 314.3 C 101.4 313.8 101.1 313.3 101 313.3 C 101 313.3 101.1 313.8 101.4 314.3 M 292.4 314.6 C 292.1 315.2 292 315.6 292 315.6 C 292.1 315.6 292.4 315.2 292.7 314.6 C 293 314.1 293.2 313.6 293.1 313.6 C 293 313.6 292.7 314.1 292.4 314.6 M 103.1 317.3 C 103.3 317.9 103.7 318.3 103.7 318.3 C 103.8 318.3 103.7 317.9 103.4 317.3 C 103.1 316.8 102.8 316.3 102.7 316.3 C 102.6 316.3 102.8 316.8 103.1 317.3 M 290.7 317.6 C 290.4 318.2 290.3 318.6 290.4 318.6 C 290.5 318.6 290.8 318.2 291.1 317.6 C 291.3 317.1 291.5 316.6 291.4 316.6 C 291.3 316.6 291 317.1 290.7 317.6 M 289.1 320.6 C 288.8 321.2 288.6 321.6 288.7 321.6 C 288.8 321.6 289.1 321.2 289.4 320.6 C 289.7 320.1 289.8 319.6 289.7 319.6 C 289.7 319.6 289.3 320.1 289.1 320.6 M 287.4 323.6 C 287.1 324.2 287 324.6 287 324.6 C 287.1 324.6 287.4 324.2 287.7 323.6 C 288 323.1 288.2 322.6 288.1 322.6 C 288 322.6 287.7 323.1 287.4 323.6" stroke="none" fill="#0b6595" fill-rule="evenodd"></path></g></svg>