<svg width="387.1px" height="94.4px" xmlns="http://www.w3.org/2000/svg" viewBox="56.437481689453136 27.800000000000004 387.1250366210937 94.39999999999999" style="background: rgba(0, 0, 0, 0)" preserveAspectRatio="xMidYMid"><defs><linearGradient id="editing-gradient-gradient" x1="0.9996954135095479" x2="0.00030458649045211894" y1="0.48255025164874965" y2="0.5174497483512503" gradientUnits="objectBoundingBox"><stop offset="0" stop-color="#00e7ff"></stop><stop offset="1" stop-color="#ff00e6"></stop></linearGradient></defs><g><g transform="matrix(1.2,0,0,1.6,117.2,166)"><path d="M -24.6 -44.9 L -24.6 -44.9 L -24.6 -44.9 Q -23.7 -44.9 -22.9 -45.2 L -22.9 -45.2 L -22.9 -45.2 Q -22 -45.5 -21.4 -46.2 L -21.4 -46.2 L -21.4 -46.2 Q -20.7 -47 -20.3 -48.1 L -20.3 -48.1 L -20.3 -48.1 Q -19.9 -49.3 -19.9 -50.9 L -19.9 -50.9 L -19.9 -50.9 Q -19.9 -52.8 -20.8 -54.5 L -20.8 -54.5 L -20.8 -54.5 Q -21.7 -56.1 -23 -57.8 L -23 -57.8 L -23 -57.8 Q -24.4 -59.4 -25.9 -61.1 L -25.9 -61.1 L -25.9 -61.1 Q -27.5 -62.7 -28.8 -64.4 L -28.8 -64.4 L -28.8 -64.4 Q -30.2 -66.1 -31.1 -67.8 L -31.1 -67.8 L -31.1 -67.8 Q -31.9 -69.6 -31.9 -71.6 L -31.9 -71.6 L -31.9 -71.6 Q -31.9 -73.5 -31.2 -75.1 L -31.2 -75.1 L -31.2 -75.1 Q -30.5 -76.7 -29.3 -77.8 L -29.3 -77.8 L -29.3 -77.8 Q -28 -78.9 -26.4 -79.5 L -26.4 -79.5 L -26.4 -79.5 Q -24.8 -80.1 -22.9 -80.1 L -22.9 -80.1 L -22.9 -80.1 Q -20.9 -80.1 -19.3 -79.7 L -19.3 -79.7 L -19.3 -79.7 Q -17.8 -79.3 -16.7 -78.6 L -16.7 -78.6 L -16.7 -78.6 Q -15.6 -77.8 -15 -76.9 L -15 -76.9 L -15 -76.9 Q -14.5 -75.9 -14.5 -74.8 L -14.5 -74.8 L -14.5 -74.8 Q -14.5 -74.3 -14.6 -73.7 L -14.6 -73.7 L -14.6 -73.7 Q -14.8 -73.2 -15.1 -72.7 L -15.1 -72.7 L -15.1 -72.7 Q -15.4 -72.3 -15.9 -72 L -15.9 -72 L -15.9 -72 Q -16.4 -71.7 -17.1 -71.7 L -17.1 -71.7 L -17.1 -71.7 Q -17.9 -71.7 -18.3 -72.2 L -18.3 -72.2 L -18.3 -72.2 Q -18.6 -72.6 -18.8 -73.4 L -18.8 -73.4 L -18.8 -73.4 Q -19 -74.1 -19.1 -74.9 L -19.1 -74.9 L -19.1 -74.9 Q -19.3 -75.8 -19.5 -76.5 L -19.5 -76.5 L -19.5 -76.5 Q -19.8 -77.2 -20.4 -77.7 L -20.4 -77.7 L -20.4 -77.7 Q -20.9 -78.1 -22 -78.1 L -22 -78.1 L -22 -78.1 Q -22.6 -78.1 -23.2 -77.9 L -23.2 -77.9 L -23.2 -77.9 Q -23.7 -77.6 -24.2 -77.1 L -24.2 -77.1 L -24.2 -77.1 Q -24.6 -76.6 -24.9 -75.8 L -24.9 -75.8 L -24.9 -75.8 Q -25.2 -74.9 -25.2 -73.8 L -25.2 -73.8 L -25.2 -73.8 Q -25.2 -72.5 -24.7 -71.3 L -24.7 -71.3 L -24.7 -71.3 Q -24.1 -70.1 -23.2 -68.9 L -23.2 -68.9 L -23.2 -68.9 Q -22.4 -67.7 -21.2 -66.5 L -21.2 -66.5 L -21.2 -66.5 Q -20.1 -65.3 -18.9 -64.1 L -18.9 -64.1 L -18.9 -64.1 Q -17.8 -62.9 -16.6 -61.6 L -16.6 -61.6 L -16.6 -61.6 Q -15.5 -60.3 -14.6 -59 L -14.6 -59 L -14.6 -59 Q -13.8 -57.6 -13.2 -56.1 L -13.2 -56.1 L -13.2 -56.1 Q -12.7 -54.6 -12.7 -52.9 L -12.7 -52.9 L -12.7 -52.9 Q -12.7 -50.5 -13.6 -48.6 L -13.6 -48.6 L -13.6 -48.6 Q -14.5 -46.7 -16.1 -45.4 L -16.1 -45.4 L -16.1 -45.4 Q -17.7 -44.1 -19.9 -43.4 L -19.9 -43.4 L -19.9 -43.4 Q -22 -42.7 -24.5 -42.7 L -24.5 -42.7 L -24.5 -42.7 Q -26.7 -42.7 -28.3 -43.3 L -28.3 -43.3 L -28.3 -43.3 Q -30 -43.8 -31.2 -44.7 L -31.2 -44.7 L -31.2 -44.7 Q -32.4 -45.6 -32.9 -46.8 L -32.9 -46.8 L -32.9 -46.8 Q -33.5 -47.9 -33.5 -49.1 L -33.5 -49.1 L -33.5 -49.1 Q -33.5 -49.7 -33.4 -50.3 L -33.4 -50.3 L -33.4 -50.3 Q -33.2 -50.8 -32.9 -51.3 L -32.9 -51.3 L -32.9 -51.3 Q -32.6 -51.8 -32.1 -52.2 L -32.1 -52.2 L -32.1 -52.2 Q -31.6 -52.5 -31 -52.5 L -31 -52.5 L -31 -52.5 Q -30.4 -52.5 -30 -52.2 L -30 -52.2 L -30 -52.2 Q -29.6 -51.9 -29.3 -51.3 L -29.3 -51.3 L -29.3 -51.3 Q -29.1 -50.8 -29 -50.1 L -29 -50.1 L -29 -50.1 Q -28.8 -49.4 -28.6 -48.7 L -28.6 -48.7 L -28.6 -48.7 Q -28.5 -48 -28.2 -47.3 L -28.2 -47.3 L -28.2 -47.3 Q -28 -46.6 -27.5 -46.1 L -27.5 -46.1 L -27.5 -46.1 Q -27 -45.5 -26.3 -45.2 L -26.3 -45.2 L -26.3 -45.2 Q -25.6 -44.9 -24.6 -44.9 Z M 5.4 -62.9 L -3.1 -57.9 L -3.1 -57.9 Q -3.1 -57.2 -2.9 -56.4 L -2.9 -56.4 L -2.9 -56.4 Q -2.7 -55.6 -2.3 -54.8 L -2.3 -54.8 L -2.3 -54.8 Q -1.9 -53.9 -1.3 -53.2 L -1.3 -53.2 L -1.3 -53.2 Q -0.8 -52.5 0 -51.9 L 0 -51.9 L 0 -51.9 Q 0.7 -51.3 1.6 -50.9 L 1.6 -50.9 L 1.6 -50.9 Q 2.5 -50.6 3.6 -50.6 L 3.6 -50.6 L 3.6 -50.6 Q 4.4 -50.6 5 -50.8 L 5 -50.8 L 5 -50.8 Q 5.6 -50.9 6.2 -51.2 L 6.2 -51.2 L 6.2 -51.2 Q 6.8 -51.5 7.3 -51.9 L 7.3 -51.9 L 7.3 -51.9 Q 7.8 -52.3 8.3 -52.8 L 8.3 -52.8 L 8.9 -52.3 L 8.9 -52.3 Q 8.4 -51.6 7.6 -50.8 L 7.6 -50.8 L 7.6 -50.8 Q 6.8 -50 5.7 -49.3 L 5.7 -49.3 L 5.7 -49.3 Q 4.6 -48.6 3.2 -48.2 L 3.2 -48.2 L 3.2 -48.2 Q 1.7 -47.7 -0.2 -47.7 L -0.2 -47.7 L -0.2 -47.7 Q -2 -47.7 -3.8 -48.4 L -3.8 -48.4 L -3.8 -48.4 Q -5.6 -49.1 -7 -50.4 L -7 -50.4 L -7 -50.4 Q -8.3 -51.8 -9.2 -53.8 L -9.2 -53.8 L -9.2 -53.8 Q -10 -55.8 -10 -58.5 L -10 -58.5 L -10 -58.5 Q -10 -60.5 -9.5 -62.1 L -9.5 -62.1 L -9.5 -62.1 Q -9 -63.7 -8.2 -65 L -8.2 -65 L -8.2 -65 Q -7.3 -66.4 -6.2 -67.3 L -6.2 -67.3 L -6.2 -67.3 Q -5 -68.3 -3.8 -69 L -3.8 -69 L -3.8 -69 Q -2.6 -69.6 -1.3 -70 L -1.3 -70 L -1.3 -70 Q 0 -70.3 1.2 -70.3 L 1.2 -70.3 L 1.2 -70.3 Q 2.8 -70.3 4 -70 L 4 -70 L 4 -70 Q 5.2 -69.6 6 -69 L 6 -69 L 6 -69 Q 6.8 -68.5 7.2 -67.7 L 7.2 -67.7 L 7.2 -67.7 Q 7.5 -66.9 7.5 -66.1 L 7.5 -66.1 L 7.5 -66.1 Q 7.5 -65.1 7 -64.3 L 7 -64.3 L 7 -64.3 Q 6.4 -63.5 5.4 -62.9 L 5.4 -62.9 Z M -3.3 -59.6 L 1.2 -62.2 L 1.2 -62.2 Q 1.5 -62.4 1.7 -62.6 L 1.7 -62.6 L 1.7 -62.6 Q 1.9 -62.7 2 -62.9 L 2 -62.9 L 2 -62.9 Q 2.1 -63.2 2.2 -63.5 L 2.2 -63.5 L 2.2 -63.5 Q 2.2 -63.8 2.2 -64.3 L 2.2 -64.3 L 2.2 -64.3 Q 2.2 -64.9 2.1 -65.5 L 2.1 -65.5 L 2.1 -65.5 Q 2 -66.2 1.7 -66.8 L 1.7 -66.8 L 1.7 -66.8 Q 1.4 -67.3 1 -67.7 L 1 -67.7 L 1 -67.7 Q 0.6 -68.1 0 -68.1 L 0 -68.1 L 0 -68.1 Q -0.8 -68.1 -1.4 -67.7 L -1.4 -67.7 L -1.4 -67.7 Q -1.9 -67.2 -2.3 -66.5 L -2.3 -66.5 L -2.3 -66.5 Q -2.6 -65.7 -2.8 -64.8 L -2.8 -64.8 L -2.8 -64.8 Q -3 -63.9 -3.1 -62.9 L -3.1 -62.9 L -3.1 -62.9 Q -3.2 -62 -3.3 -61.1 L -3.3 -61.1 L -3.3 -61.1 Q -3.3 -60.2 -3.3 -59.6 L -3.3 -59.6 Z M 21.4 -53.9 L 21.4 -59.1 L 21.4 -59.1 Q 21.4 -59.7 21.1 -60 L 21.1 -60 L 21.1 -60 Q 20.7 -60.2 20.2 -60.2 L 20.2 -60.2 L 20.2 -60.2 Q 19.4 -60.2 18.8 -59.9 L 18.8 -59.9 L 18.8 -59.9 Q 18.1 -59.5 17.6 -58.9 L 17.6 -58.9 L 17.6 -58.9 Q 17.1 -58.2 16.8 -57.2 L 16.8 -57.2 L 16.8 -57.2 Q 16.5 -56.3 16.5 -55 L 16.5 -55 L 16.5 -55 Q 16.5 -53.7 16.6 -52.9 L 16.6 -52.9 L 16.6 -52.9 Q 16.8 -52.1 17.1 -51.6 L 17.1 -51.6 L 17.1 -51.6 Q 17.4 -51.1 17.9 -50.9 L 17.9 -50.9 L 17.9 -50.9 Q 18.3 -50.7 18.7 -50.7 L 18.7 -50.7 L 18.7 -50.7 Q 19.3 -50.7 19.8 -51 L 19.8 -51 L 19.8 -51 Q 20.3 -51.3 20.6 -51.8 L 20.6 -51.8 L 20.6 -51.8 Q 21 -52.2 21.2 -52.8 L 21.2 -52.8 L 21.2 -52.8 Q 21.4 -53.3 21.4 -53.9 L 21.4 -53.9 Z M 18 -68.5 L 18 -68.5 L 18 -68.5 Q 17.3 -68.5 16.6 -68.4 L 16.6 -68.4 L 16.6 -68.4 Q 16 -68.2 15.6 -67.9 L 15.6 -67.9 L 15.6 -67.9 Q 15.1 -67.7 14.9 -67.4 L 14.9 -67.4 L 14.9 -67.4 Q 14.6 -67.1 14.6 -66.8 L 14.6 -66.8 L 14.6 -66.8 Q 14.6 -66.5 14.9 -66.3 L 14.9 -66.3 L 14.9 -66.3 Q 15.3 -66.2 15.7 -66 L 15.7 -66 L 15.7 -66 Q 16.1 -65.8 16.4 -65.5 L 16.4 -65.5 L 16.4 -65.5 Q 16.8 -65.1 16.8 -64.5 L 16.8 -64.5 L 16.8 -64.5 Q 16.8 -64 16.6 -63.6 L 16.6 -63.6 L 16.6 -63.6 Q 16.4 -63.3 16.1 -63 L 16.1 -63 L 16.1 -63 Q 15.8 -62.7 15.3 -62.5 L 15.3 -62.5 L 15.3 -62.5 Q 14.9 -62.4 14.5 -62.4 L 14.5 -62.4 L 14.5 -62.4 Q 13.3 -62.4 12.5 -63.2 L 12.5 -63.2 L 12.5 -63.2 Q 11.8 -64 11.8 -65.3 L 11.8 -65.3 L 11.8 -65.3 Q 11.8 -66.7 12.5 -67.6 L 12.5 -67.6 L 12.5 -67.6 Q 13.2 -68.5 14.3 -69.1 L 14.3 -69.1 L 14.3 -69.1 Q 15.4 -69.7 16.8 -70 L 16.8 -70 L 16.8 -70 Q 18.2 -70.3 19.6 -70.3 L 19.6 -70.3 L 19.6 -70.3 Q 21.2 -70.3 22.8 -69.9 L 22.8 -69.9 L 22.8 -69.9 Q 24.3 -69.6 25.5 -68.8 L 25.5 -68.8 L 25.5 -68.8 Q 26.6 -68 27.3 -66.8 L 27.3 -66.8 L 27.3 -66.8 Q 28 -65.5 28 -63.8 L 28 -63.8 L 28 -51.7 L 28 -51.7 Q 28 -51.5 28.1 -51.2 L 28.1 -51.2 L 28.1 -51.2 Q 28.1 -51 28.2 -50.8 L 28.2 -50.8 L 28.2 -50.8 Q 28.3 -50.6 28.4 -50.5 L 28.4 -50.5 L 28.4 -50.5 Q 28.6 -50.3 28.9 -50.3 L 28.9 -50.3 L 28.9 -50.3 Q 29.3 -50.3 29.6 -50.6 L 29.6 -50.6 L 29.6 -50.6 Q 30 -50.9 30.2 -51.2 L 30.2 -51.2 L 30.8 -50.8 L 30.8 -50.8 Q 30.4 -50.3 30 -49.8 L 30 -49.8 L 30 -49.8 Q 29.5 -49.3 28.9 -48.8 L 28.9 -48.8 L 28.9 -48.8 Q 28.3 -48.3 27.4 -48 L 27.4 -48 L 27.4 -48 Q 26.5 -47.7 25.4 -47.7 L 25.4 -47.7 L 25.4 -47.7 Q 24.1 -47.7 23 -48.5 L 23 -48.5 L 23 -48.5 Q 22 -49.3 21.7 -50.9 L 21.7 -50.9 L 21.7 -50.9 Q 21 -50 20.2 -49.4 L 20.2 -49.4 L 20.2 -49.4 Q 19.5 -48.8 18.7 -48.4 L 18.7 -48.4 L 18.7 -48.4 Q 17.9 -48 17.2 -47.8 L 17.2 -47.8 L 17.2 -47.8 Q 16.4 -47.7 15.6 -47.7 L 15.6 -47.7 L 15.6 -47.7 Q 14.5 -47.7 13.6 -48 L 13.6 -48 L 13.6 -48 Q 12.6 -48.3 11.8 -49 L 11.8 -49 L 11.8 -49 Q 11.1 -49.7 10.6 -50.8 L 10.6 -50.8 L 10.6 -50.8 Q 10.2 -51.9 10.2 -53.5 L 10.2 -53.5 L 10.2 -53.5 Q 10.2 -55.5 10.9 -56.7 L 10.9 -56.7 L 10.9 -56.7 Q 11.7 -58 13 -58.8 L 13 -58.8 L 13 -58.8 Q 14.2 -59.7 15.8 -60.3 L 15.8 -60.3 L 15.8 -60.3 Q 17.4 -60.9 19.1 -61.6 L 19.1 -61.6 L 19.1 -61.6 Q 20.3 -62.1 20.9 -63 L 20.9 -63 L 20.9 -63 Q 21.5 -64 21.5 -65 L 21.5 -65 L 21.5 -65 Q 21.5 -66.6 20.5 -67.6 L 20.5 -67.6 L 20.5 -67.6 Q 19.6 -68.5 18 -68.5 Z M 40.5 -65.8 L 40.5 -65.8 L 40.5 -65.8 Q 41.3 -67 42.3 -68 L 42.3 -68 L 42.3 -68 Q 42.6 -68.5 43.1 -68.9 L 43.1 -68.9 L 43.1 -68.9 Q 43.5 -69.3 44 -69.6 L 44 -69.6 L 44 -69.6 Q 44.5 -69.9 45 -70.1 L 45 -70.1 L 45 -70.1 Q 45.5 -70.3 46.1 -70.3 L 46.1 -70.3 L 46.1 -70.3 Q 47.2 -70.3 47.8 -69.7 L 47.8 -69.7 L 47.8 -69.7 Q 48.4 -69 48.4 -67.8 L 48.4 -67.8 L 48.4 -67.8 Q 48.4 -67.1 48.3 -66.4 L 48.3 -66.4 L 48.3 -66.4 Q 48.2 -65.7 47.8 -64.8 L 47.8 -64.8 L 47.2 -64.8 L 47.2 -64.8 Q 47.1 -65.4 46.6 -65.9 L 46.6 -65.9 L 46.6 -65.9 Q 46.1 -66.3 45.2 -66.3 L 45.2 -66.3 L 45.2 -66.3 Q 44.6 -66.3 43.9 -66.1 L 43.9 -66.1 L 43.9 -66.1 Q 43.3 -65.8 42.7 -65.5 L 42.7 -65.5 L 42.7 -65.5 Q 42.1 -65.1 41.5 -64.7 L 41.5 -64.7 L 41.5 -64.7 Q 41 -64.2 40.5 -63.8 L 40.5 -63.8 L 40.5 -49.9 L 40.5 -49.9 Q 40.5 -49.6 40.4 -49.2 L 40.4 -49.2 L 40.4 -49.2 Q 40.3 -48.8 40 -48.5 L 40 -48.5 L 40 -48.5 Q 39.7 -48.2 39 -47.9 L 39 -47.9 L 39 -47.9 Q 38.4 -47.7 37.2 -47.7 L 37.2 -47.7 L 37.2 -47.7 Q 36.1 -47.7 35.4 -47.9 L 35.4 -47.9 L 35.4 -47.9 Q 34.8 -48.2 34.4 -48.6 L 34.4 -48.6 L 34.4 -48.6 Q 34.1 -48.9 34 -49.3 L 34 -49.3 L 34 -49.3 Q 33.9 -49.7 33.9 -49.9 L 33.9 -49.9 L 33.9 -66.5 L 33.9 -66.5 Q 33.9 -67.1 33.6 -67.6 L 33.6 -67.6 L 33.6 -67.6 Q 33.3 -68.1 32.7 -68.1 L 32.7 -68.1 L 32.7 -68.1 Q 32.3 -68.1 32 -67.9 L 32 -67.9 L 32 -67.9 Q 31.8 -67.8 31.5 -67.6 L 31.5 -67.6 L 31 -68.1 L 31 -68.1 Q 31.5 -68.5 32.1 -68.9 L 32.1 -68.9 L 32.1 -68.9 Q 32.7 -69.3 33.5 -69.6 L 33.5 -69.6 L 33.5 -69.6 Q 34.2 -69.9 35 -70.1 L 35 -70.1 L 35 -70.1 Q 35.8 -70.3 36.7 -70.3 L 36.7 -70.3 L 36.7 -70.3 Q 37.6 -70.3 38.3 -70.1 L 38.3 -70.1 L 38.3 -70.1 Q 38.9 -69.8 39.3 -69.4 L 39.3 -69.4 L 39.3 -69.4 Q 39.8 -69 40 -68.5 L 40 -68.5 L 40 -68.5 Q 40.2 -68 40.4 -67.5 L 40.4 -67.5 L 40.4 -67.5 Q 40.5 -67 40.5 -66.6 L 40.5 -66.6 L 40.5 -66.6 Q 40.5 -66.1 40.5 -65.8 Z M 63.9 -62.9 L 63.9 -62.9 L 63.9 -62.9 Q 63.2 -62.9 62.8 -63.1 L 62.8 -63.1 L 62.8 -63.1 Q 62.3 -63.3 62 -63.6 L 62 -63.6 L 62 -63.6 Q 61.8 -64 61.6 -64.4 L 61.6 -64.4 L 61.6 -64.4 Q 61.5 -64.8 61.5 -65.3 L 61.5 -65.3 L 61.5 -65.3 Q 61.5 -65.8 61.6 -66.4 L 61.6 -66.4 L 61.6 -66.4 Q 61.7 -66.9 61.6 -67.3 L 61.6 -67.3 L 61.6 -67.3 Q 61.6 -67.8 61.3 -68 L 61.3 -68 L 61.3 -68 Q 61 -68.3 60.3 -68.3 L 60.3 -68.3 L 60.3 -68.3 Q 59.5 -68.3 58.7 -67.9 L 58.7 -67.9 L 58.7 -67.9 Q 57.9 -67.4 57.2 -66.5 L 57.2 -66.5 L 57.2 -66.5 Q 56.5 -65.6 56 -64.1 L 56 -64.1 L 56 -64.1 Q 55.6 -62.7 55.6 -60.6 L 55.6 -60.6 L 55.6 -60.6 Q 55.6 -58.4 56 -56.5 L 56 -56.5 L 56 -56.5 Q 56.4 -54.7 57.3 -53.4 L 57.3 -53.4 L 57.3 -53.4 Q 58.1 -52 59.3 -51.3 L 59.3 -51.3 L 59.3 -51.3 Q 60.6 -50.6 62.3 -50.6 L 62.3 -50.6 L 62.3 -50.6 Q 63 -50.6 63.7 -50.8 L 63.7 -50.8 L 63.7 -50.8 Q 64.4 -50.9 65 -51.2 L 65 -51.2 L 65 -51.2 Q 65.6 -51.5 66.1 -51.9 L 66.1 -51.9 L 66.1 -51.9 Q 66.7 -52.3 67.2 -52.8 L 67.2 -52.8 L 67.7 -52.3 L 67.7 -52.3 Q 67.2 -51.6 66.5 -50.8 L 66.5 -50.8 L 66.5 -50.8 Q 65.7 -50 64.6 -49.3 L 64.6 -49.3 L 64.6 -49.3 Q 63.5 -48.6 62 -48.2 L 62 -48.2 L 62 -48.2 Q 60.6 -47.7 58.7 -47.7 L 58.7 -47.7 L 58.7 -47.7 Q 56.8 -47.7 55.1 -48.4 L 55.1 -48.4 L 55.1 -48.4 Q 53.3 -49.1 51.9 -50.5 L 51.9 -50.5 L 51.9 -50.5 Q 50.5 -51.9 49.7 -53.9 L 49.7 -53.9 L 49.7 -53.9 Q 48.9 -55.8 48.9 -58.3 L 48.9 -58.3 L 48.9 -58.3 Q 48.9 -60.3 49.4 -61.9 L 49.4 -61.9 L 49.4 -61.9 Q 49.9 -63.6 50.7 -64.9 L 50.7 -64.9 L 50.7 -64.9 Q 51.6 -66.2 52.7 -67.3 L 52.7 -67.3 L 52.7 -67.3 Q 53.8 -68.3 55.1 -68.9 L 55.1 -68.9 L 55.1 -68.9 Q 56.3 -69.6 57.6 -70 L 57.6 -70 L 57.6 -70 Q 58.9 -70.3 60.1 -70.3 L 60.1 -70.3 L 60.1 -70.3 Q 61.7 -70.3 62.9 -69.9 L 62.9 -69.9 L 62.9 -69.9 Q 64.1 -69.6 64.8 -69 L 64.8 -69 L 64.8 -69 Q 65.6 -68.4 66 -67.6 L 66 -67.6 L 66 -67.6 Q 66.4 -66.8 66.4 -66 L 66.4 -66 L 66.4 -66 Q 66.4 -65.3 66.2 -64.8 L 66.2 -64.8 L 66.2 -64.8 Q 66.1 -64.2 65.8 -63.8 L 65.8 -63.8 L 65.8 -63.8 Q 65.5 -63.4 65 -63.1 L 65 -63.1 L 65 -63.1 Q 64.5 -62.9 63.9 -62.9 Z M 77.3 -77.9 L 77.3 -66.2 L 77.3 -66.2 Q 78.1 -67.4 79.1 -68.3 L 79.1 -68.3 L 79.1 -68.3 Q 79.5 -68.7 80 -69 L 80 -69 L 80 -69 Q 80.5 -69.4 81 -69.7 L 81 -69.7 L 81 -69.7 Q 81.6 -70 82.3 -70.1 L 82.3 -70.1 L 82.3 -70.1 Q 82.9 -70.3 83.6 -70.3 L 83.6 -70.3 L 83.6 -70.3 Q 85 -70.3 86.1 -69.7 L 86.1 -69.7 L 86.1 -69.7 Q 87.3 -69.2 88 -67.9 L 88 -67.9 L 88 -67.9 Q 88.8 -66.6 89.2 -64.4 L 89.2 -64.4 L 89.2 -64.4 Q 89.6 -62.2 89.6 -59 L 89.6 -59 L 89.6 -59 Q 89.6 -55.9 89.1 -53.6 L 89.1 -53.6 L 89.1 -53.6 Q 88.5 -51.3 87.6 -49.7 L 87.6 -49.7 L 87.6 -49.7 Q 86.7 -48.1 85.6 -47.1 L 85.6 -47.1 L 85.6 -47.1 Q 84.4 -46.1 83.3 -45.5 L 83.3 -45.5 L 83.3 -45.5 Q 82.1 -44.9 81 -44.7 L 81 -44.7 L 81 -44.7 Q 80 -44.5 79.2 -44.4 L 79.2 -44.4 L 79 -45.3 L 79 -45.3 Q 79.9 -45.6 80.7 -46.2 L 80.7 -46.2 L 80.7 -46.2 Q 81.4 -46.8 82 -48.3 L 82 -48.3 L 82 -48.3 Q 82.5 -49.8 82.7 -52.3 L 82.7 -52.3 L 82.7 -52.3 Q 83 -54.8 83 -58.7 L 83 -58.7 L 83 -58.7 Q 83 -61.4 82.8 -63 L 82.8 -63 L 82.8 -63 Q 82.5 -64.7 82.1 -65.5 L 82.1 -65.5 L 82.1 -65.5 Q 81.7 -66.4 81.2 -66.6 L 81.2 -66.6 L 81.2 -66.6 Q 80.7 -66.9 80.2 -66.9 L 80.2 -66.9 L 80.2 -66.9 Q 79.6 -66.9 79.1 -66.6 L 79.1 -66.6 L 79.1 -66.6 Q 78.6 -66.2 78.3 -65.8 L 78.3 -65.8 L 78.3 -65.8 Q 77.9 -65.4 77.7 -64.9 L 77.7 -64.9 L 77.7 -64.9 Q 77.4 -64.5 77.3 -64.3 L 77.3 -64.3 L 77.3 -49.9 L 77.3 -49.9 Q 77.3 -49.7 77.2 -49.3 L 77.2 -49.3 L 77.2 -49.3 Q 77.1 -48.9 76.8 -48.5 L 76.8 -48.5 L 76.8 -48.5 Q 76.4 -48.2 75.8 -47.9 L 75.8 -47.9 L 75.8 -47.9 Q 75.1 -47.7 74 -47.7 L 74 -47.7 L 74 -47.7 Q 72.8 -47.7 72.2 -47.9 L 72.2 -47.9 L 72.2 -47.9 Q 71.5 -48.2 71.2 -48.6 L 71.2 -48.6 L 71.2 -48.6 Q 70.8 -48.9 70.7 -49.3 L 70.7 -49.3 L 70.7 -49.3 Q 70.7 -49.7 70.7 -49.9 L 70.7 -49.9 L 70.7 -77.7 L 70.7 -77.7 Q 70.7 -78.3 70.4 -78.7 L 70.4 -78.7 L 70.4 -78.7 Q 70.1 -79.2 69.4 -79.2 L 69.4 -79.2 L 69.4 -79.2 Q 69 -79.2 68.8 -79.1 L 68.8 -79.1 L 68.8 -79.1 Q 68.5 -79 68.2 -78.7 L 68.2 -78.7 L 67.8 -79.2 L 67.8 -79.2 Q 68.3 -79.7 68.9 -80 L 68.9 -80 L 68.9 -80 Q 69.5 -80.4 70.2 -80.7 L 70.2 -80.7 L 70.2 -80.7 Q 70.9 -81 71.7 -81.2 L 71.7 -81.2 L 71.7 -81.2 Q 72.5 -81.4 73.4 -81.4 L 73.4 -81.4 L 73.4 -81.4 Q 74.8 -81.4 75.6 -81.1 L 75.6 -81.1 L 75.6 -81.1 Q 76.4 -80.7 76.7 -80.1 L 76.7 -80.1 L 76.7 -80.1 Q 77.1 -79.6 77.2 -79 L 77.2 -79 L 77.2 -79 Q 77.3 -78.4 77.3 -77.9 L 77.3 -77.9 Z M 130.2 -63.2 L 130.2 -61.2 L 127.1 -61.2 L 127.1 -48.6 L 127.1 -48.6 Q 127.1 -45.7 126.1 -43.5 L 126.1 -43.5 L 126.1 -43.5 Q 125.1 -41.3 123.4 -39.9 L 123.4 -39.9 L 123.4 -39.9 Q 121.6 -38.4 119.2 -37.7 L 119.2 -37.7 L 119.2 -37.7 Q 116.7 -37 113.9 -37 L 113.9 -37 L 113.9 -37 Q 112.8 -37 111.8 -37.2 L 111.8 -37.2 L 111.8 -37.2 Q 110.8 -37.4 110 -37.7 L 110 -37.7 L 110 -37.7 Q 109.2 -38 108.8 -38.5 L 108.8 -38.5 L 108.8 -38.5 Q 108.3 -38.9 108.3 -39.4 L 108.3 -39.4 L 108.3 -39.4 Q 108.3 -39.8 108.4 -40.2 L 108.4 -40.2 L 108.4 -40.2 Q 108.5 -40.6 108.7 -40.9 L 108.7 -40.9 L 108.7 -40.9 Q 108.9 -41.3 109.3 -41.5 L 109.3 -41.5 L 109.3 -41.5 Q 109.6 -41.7 110 -41.7 L 110 -41.7 L 110 -41.7 Q 110.2 -41.7 110.4 -41.4 L 110.4 -41.4 L 110.4 -41.4 Q 110.6 -41.2 110.8 -40.9 L 110.8 -40.9 L 110.8 -40.9 Q 110.9 -40.5 111.2 -40.1 L 111.2 -40.1 L 111.2 -40.1 Q 111.5 -39.7 111.8 -39.3 L 111.8 -39.3 L 111.8 -39.3 Q 112.2 -39 112.8 -38.7 L 112.8 -38.7 L 112.8 -38.7 Q 113.4 -38.5 114.2 -38.5 L 114.2 -38.5 L 114.2 -38.5 Q 115.8 -38.5 117.1 -39.1 L 117.1 -39.1 L 117.1 -39.1 Q 118.4 -39.7 119.2 -40.8 L 119.2 -40.8 L 119.2 -40.8 Q 120.1 -41.9 120.5 -43.4 L 120.5 -43.4 L 120.5 -43.4 Q 121 -44.9 121 -46.7 L 121 -46.7 L 121 -48 L 121 -48 Q 120.1 -47.9 119.1 -47.8 L 119.1 -47.8 L 119.1 -47.8 Q 118.2 -47.7 117.1 -47.7 L 117.1 -47.7 L 117.1 -47.7 Q 114.2 -47.7 111.6 -48.6 L 111.6 -48.6 L 111.6 -48.6 Q 109.1 -49.4 107.2 -51.3 L 107.2 -51.3 L 107.2 -51.3 Q 105.3 -53.2 104.2 -56.1 L 104.2 -56.1 L 104.2 -56.1 Q 103.1 -59 103.1 -63 L 103.1 -63 L 103.1 -63 Q 103.1 -65.8 103.7 -68.2 L 103.7 -68.2 L 103.7 -68.2 Q 104.3 -70.5 105.3 -72.4 L 105.3 -72.4 L 105.3 -72.4 Q 106.4 -74.3 107.9 -75.8 L 107.9 -75.8 L 107.9 -75.8 Q 109.4 -77.2 111.1 -78.2 L 111.1 -78.2 L 111.1 -78.2 Q 112.8 -79.1 114.7 -79.6 L 114.7 -79.6 L 114.7 -79.6 Q 116.7 -80.1 118.6 -80.1 L 118.6 -80.1 L 118.6 -80.1 Q 120.5 -80.1 122.1 -79.8 L 122.1 -79.8 L 122.1 -79.8 Q 123.7 -79.4 124.9 -78.7 L 124.9 -78.7 L 124.9 -78.7 Q 126.1 -78.1 126.8 -77.1 L 126.8 -77.1 L 126.8 -77.1 Q 127.5 -76.1 127.5 -74.8 L 127.5 -74.8 L 127.5 -74.8 Q 127.5 -74.2 127.3 -73.6 L 127.3 -73.6 L 127.3 -73.6 Q 127.1 -72.9 126.7 -72.4 L 126.7 -72.4 L 126.7 -72.4 Q 126.3 -71.9 125.7 -71.6 L 125.7 -71.6 L 125.7 -71.6 Q 125.1 -71.2 124.4 -71.2 L 124.4 -71.2 L 124.4 -71.2 Q 123.4 -71.2 123 -71.8 L 123 -71.8 L 123 -71.8 Q 122.5 -72.3 122.3 -73.1 L 122.3 -73.1 L 122.3 -73.1 Q 122.1 -73.8 122 -74.8 L 122 -74.8 L 122 -74.8 Q 121.9 -75.7 121.6 -76.5 L 121.6 -76.5 L 121.6 -76.5 Q 121.4 -77.2 120.8 -77.8 L 120.8 -77.8 L 120.8 -77.8 Q 120.3 -78.3 119.3 -78.3 L 119.3 -78.3 L 119.3 -78.3 Q 118.5 -78.3 117.6 -77.9 L 117.6 -77.9 L 117.6 -77.9 Q 116.7 -77.5 115.7 -76.8 L 115.7 -76.8 L 115.7 -76.8 Q 114.7 -76 113.8 -74.8 L 113.8 -74.8 L 113.8 -74.8 Q 112.9 -73.5 112.1 -71.9 L 112.1 -71.9 L 112.1 -71.9 Q 111.4 -70.2 111 -68 L 111 -68 L 111 -68 Q 110.5 -65.8 110.5 -63 L 110.5 -63 L 110.5 -63 Q 110.5 -60 110.9 -57.8 L 110.9 -57.8 L 110.9 -57.8 Q 111.3 -55.6 111.9 -54.2 L 111.9 -54.2 L 111.9 -54.2 Q 112.6 -52.7 113.4 -51.9 L 113.4 -51.9 L 113.4 -51.9 Q 114.2 -51 115.1 -50.6 L 115.1 -50.6 L 115.1 -50.6 Q 116 -50.2 116.9 -50.1 L 116.9 -50.1 L 116.9 -50.1 Q 117.7 -49.9 118.5 -49.9 L 118.5 -49.9 L 118.5 -49.9 Q 119.2 -49.9 119.8 -50.1 L 119.8 -50.1 L 119.8 -50.1 Q 120.5 -50.2 121 -50.4 L 121 -50.4 L 121 -61.2 L 117.2 -61.2 L 117.2 -63.2 L 130.2 -63.2 Z M 143.4 -53.9 L 143.4 -59.1 L 143.4 -59.1 Q 143.4 -59.7 143.1 -60 L 143.1 -60 L 143.1 -60 Q 142.7 -60.2 142.2 -60.2 L 142.2 -60.2 L 142.2 -60.2 Q 141.5 -60.2 140.8 -59.9 L 140.8 -59.9 L 140.8 -59.9 Q 140.1 -59.5 139.6 -58.9 L 139.6 -58.9 L 139.6 -58.9 Q 139.1 -58.2 138.8 -57.2 L 138.8 -57.2 L 138.8 -57.2 Q 138.5 -56.3 138.5 -55 L 138.5 -55 L 138.5 -55 Q 138.5 -53.7 138.6 -52.9 L 138.6 -52.9 L 138.6 -52.9 Q 138.8 -52.1 139.1 -51.6 L 139.1 -51.6 L 139.1 -51.6 Q 139.5 -51.1 139.9 -50.9 L 139.9 -50.9 L 139.9 -50.9 Q 140.3 -50.7 140.7 -50.7 L 140.7 -50.7 L 140.7 -50.7 Q 141.3 -50.7 141.8 -51 L 141.8 -51 L 141.8 -51 Q 142.3 -51.3 142.6 -51.8 L 142.6 -51.8 L 142.6 -51.8 Q 143 -52.2 143.2 -52.8 L 143.2 -52.8 L 143.2 -52.8 Q 143.4 -53.3 143.4 -53.9 L 143.4 -53.9 Z M 140 -68.5 L 140 -68.5 L 140 -68.5 Q 139.3 -68.5 138.7 -68.4 L 138.7 -68.4 L 138.7 -68.4 Q 138 -68.2 137.6 -67.9 L 137.6 -67.9 L 137.6 -67.9 Q 137.1 -67.7 136.9 -67.4 L 136.9 -67.4 L 136.9 -67.4 Q 136.6 -67.1 136.6 -66.8 L 136.6 -66.8 L 136.6 -66.8 Q 136.6 -66.5 137 -66.3 L 137 -66.3 L 137 -66.3 Q 137.3 -66.2 137.7 -66 L 137.7 -66 L 137.7 -66 Q 138.1 -65.8 138.4 -65.5 L 138.4 -65.5 L 138.4 -65.5 Q 138.8 -65.1 138.8 -64.5 L 138.8 -64.5 L 138.8 -64.5 Q 138.8 -64 138.6 -63.6 L 138.6 -63.6 L 138.6 -63.6 Q 138.4 -63.3 138.1 -63 L 138.1 -63 L 138.1 -63 Q 137.8 -62.7 137.4 -62.5 L 137.4 -62.5 L 137.4 -62.5 Q 136.9 -62.4 136.5 -62.4 L 136.5 -62.4 L 136.5 -62.4 Q 135.3 -62.4 134.5 -63.2 L 134.5 -63.2 L 134.5 -63.2 Q 133.8 -64 133.8 -65.3 L 133.8 -65.3 L 133.8 -65.3 Q 133.8 -66.7 134.5 -67.6 L 134.5 -67.6 L 134.5 -67.6 Q 135.2 -68.5 136.3 -69.1 L 136.3 -69.1 L 136.3 -69.1 Q 137.4 -69.7 138.8 -70 L 138.8 -70 L 138.8 -70 Q 140.2 -70.3 141.6 -70.3 L 141.6 -70.3 L 141.6 -70.3 Q 143.3 -70.3 144.8 -69.9 L 144.8 -69.9 L 144.8 -69.9 Q 146.3 -69.6 147.5 -68.8 L 147.5 -68.8 L 147.5 -68.8 Q 148.6 -68 149.3 -66.8 L 149.3 -66.8 L 149.3 -66.8 Q 150 -65.5 150 -63.8 L 150 -63.8 L 150 -51.7 L 150 -51.7 Q 150 -51.5 150.1 -51.2 L 150.1 -51.2 L 150.1 -51.2 Q 150.1 -51 150.2 -50.8 L 150.2 -50.8 L 150.2 -50.8 Q 150.3 -50.6 150.4 -50.5 L 150.4 -50.5 L 150.4 -50.5 Q 150.6 -50.3 150.9 -50.3 L 150.9 -50.3 L 150.9 -50.3 Q 151.3 -50.3 151.6 -50.6 L 151.6 -50.6 L 151.6 -50.6 Q 152 -50.9 152.2 -51.2 L 152.2 -51.2 L 152.8 -50.8 L 152.8 -50.8 Q 152.5 -50.3 152 -49.8 L 152 -49.8 L 152 -49.8 Q 151.5 -49.3 150.9 -48.8 L 150.9 -48.8 L 150.9 -48.8 Q 150.3 -48.3 149.4 -48 L 149.4 -48 L 149.4 -48 Q 148.5 -47.7 147.4 -47.7 L 147.4 -47.7 L 147.4 -47.7 Q 146.1 -47.7 145 -48.5 L 145 -48.5 L 145 -48.5 Q 144 -49.3 143.7 -50.9 L 143.7 -50.9 L 143.7 -50.9 Q 143 -50 142.2 -49.4 L 142.2 -49.4 L 142.2 -49.4 Q 141.5 -48.8 140.7 -48.4 L 140.7 -48.4 L 140.7 -48.4 Q 139.9 -48 139.2 -47.8 L 139.2 -47.8 L 139.2 -47.8 Q 138.4 -47.7 137.6 -47.7 L 137.6 -47.7 L 137.6 -47.7 Q 136.6 -47.7 135.6 -48 L 135.6 -48 L 135.6 -48 Q 134.6 -48.3 133.9 -49 L 133.9 -49 L 133.9 -49 Q 133.1 -49.7 132.6 -50.8 L 132.6 -50.8 L 132.6 -50.8 Q 132.2 -51.9 132.2 -53.5 L 132.2 -53.5 L 132.2 -53.5 Q 132.2 -55.5 132.9 -56.7 L 132.9 -56.7 L 132.9 -56.7 Q 133.7 -58 135 -58.8 L 135 -58.8 L 135 -58.8 Q 136.2 -59.7 137.8 -60.3 L 137.8 -60.3 L 137.8 -60.3 Q 139.4 -60.9 141.1 -61.6 L 141.1 -61.6 L 141.1 -61.6 Q 142.4 -62.1 142.9 -63 L 142.9 -63 L 142.9 -63 Q 143.5 -64 143.5 -65 L 143.5 -65 L 143.5 -65 Q 143.5 -66.6 142.6 -67.6 L 142.6 -67.6 L 142.6 -67.6 Q 141.6 -68.5 140 -68.5 Z M 162.3 -77.9 L 162.3 -49.9 L 162.3 -49.9 Q 162.3 -49.6 162.2 -49.2 L 162.2 -49.2 L 162.2 -49.2 Q 162.1 -48.8 161.8 -48.5 L 161.8 -48.5 L 161.8 -48.5 Q 161.4 -48.2 160.7 -47.9 L 160.7 -47.9 L 160.7 -47.9 Q 160.1 -47.7 158.9 -47.7 L 158.9 -47.7 L 158.9 -47.7 Q 157.8 -47.7 157.1 -47.9 L 157.1 -47.9 L 157.1 -47.9 Q 156.5 -48.2 156.2 -48.6 L 156.2 -48.6 L 156.2 -48.6 Q 155.9 -48.9 155.8 -49.3 L 155.8 -49.3 L 155.8 -49.3 Q 155.7 -49.7 155.7 -49.9 L 155.7 -49.9 L 155.7 -77.7 L 155.7 -77.7 Q 155.7 -78.3 155.4 -78.7 L 155.4 -78.7 L 155.4 -78.7 Q 155.1 -79.2 154.5 -79.2 L 154.5 -79.2 L 154.5 -79.2 Q 154.1 -79.2 153.8 -79.1 L 153.8 -79.1 L 153.8 -79.1 Q 153.5 -79 153.2 -78.7 L 153.2 -78.7 L 152.8 -79.2 L 152.8 -79.2 Q 153.3 -79.7 153.9 -80 L 153.9 -80 L 153.9 -80 Q 154.5 -80.4 155.2 -80.7 L 155.2 -80.7 L 155.2 -80.7 Q 156 -81 156.8 -81.2 L 156.8 -81.2 L 156.8 -81.2 Q 157.6 -81.4 158.5 -81.4 L 158.5 -81.4 L 158.5 -81.4 Q 159.9 -81.4 160.7 -81.1 L 160.7 -81.1 L 160.7 -81.1 Q 161.4 -80.7 161.8 -80.1 L 161.8 -80.1 L 161.8 -80.1 Q 162.2 -79.6 162.2 -79 L 162.2 -79 L 162.2 -79 Q 162.3 -78.4 162.3 -77.9 L 162.3 -77.9 Z M 174.4 -77.9 L 174.4 -49.9 L 174.4 -49.9 Q 174.4 -49.6 174.3 -49.2 L 174.3 -49.2 L 174.3 -49.2 Q 174.2 -48.8 173.8 -48.5 L 173.8 -48.5 L 173.8 -48.5 Q 173.5 -48.2 172.8 -47.9 L 172.8 -47.9 L 172.8 -47.9 Q 172.1 -47.7 171 -47.7 L 171 -47.7 L 171 -47.7 Q 169.8 -47.7 169.2 -47.9 L 169.2 -47.9 L 169.2 -47.9 Q 168.5 -48.2 168.2 -48.6 L 168.2 -48.6 L 168.2 -48.6 Q 167.9 -48.9 167.8 -49.3 L 167.8 -49.3 L 167.8 -49.3 Q 167.8 -49.7 167.8 -49.9 L 167.8 -49.9 L 167.8 -77.7 L 167.8 -77.7 Q 167.8 -78.3 167.5 -78.7 L 167.5 -78.7 L 167.5 -78.7 Q 167.2 -79.2 166.5 -79.2 L 166.5 -79.2 L 166.5 -79.2 Q 166.1 -79.2 165.9 -79.1 L 165.9 -79.1 L 165.9 -79.1 Q 165.6 -79 165.3 -78.7 L 165.3 -78.7 L 164.9 -79.2 L 164.9 -79.2 Q 165.4 -79.7 166 -80 L 166 -80 L 166 -80 Q 166.6 -80.4 167.3 -80.7 L 167.3 -80.7 L 167.3 -80.7 Q 168 -81 168.8 -81.2 L 168.8 -81.2 L 168.8 -81.2 Q 169.6 -81.4 170.5 -81.4 L 170.5 -81.4 L 170.5 -81.4 Q 171.9 -81.4 172.7 -81.1 L 172.7 -81.1 L 172.7 -81.1 Q 173.5 -80.7 173.9 -80.1 L 173.9 -80.1 L 173.9 -80.1 Q 174.2 -79.6 174.3 -79 L 174.3 -79 L 174.3 -79 Q 174.4 -78.4 174.4 -77.9 L 174.4 -77.9 Z M 193.8 -62.9 L 185.3 -57.9 L 185.3 -57.9 Q 185.3 -57.2 185.5 -56.4 L 185.5 -56.4 L 185.5 -56.4 Q 185.7 -55.6 186.1 -54.8 L 186.1 -54.8 L 186.1 -54.8 Q 186.5 -53.9 187.1 -53.2 L 187.1 -53.2 L 187.1 -53.2 Q 187.6 -52.5 188.4 -51.9 L 188.4 -51.9 L 188.4 -51.9 Q 189.1 -51.3 190 -50.9 L 190 -50.9 L 190 -50.9 Q 190.9 -50.6 192 -50.6 L 192 -50.6 L 192 -50.6 Q 192.8 -50.6 193.4 -50.8 L 193.4 -50.8 L 193.4 -50.8 Q 194 -50.9 194.6 -51.2 L 194.6 -51.2 L 194.6 -51.2 Q 195.2 -51.5 195.7 -51.9 L 195.7 -51.9 L 195.7 -51.9 Q 196.2 -52.3 196.7 -52.8 L 196.7 -52.8 L 197.2 -52.3 L 197.2 -52.3 Q 196.8 -51.6 196 -50.8 L 196 -50.8 L 196 -50.8 Q 195.2 -50 194.1 -49.3 L 194.1 -49.3 L 194.1 -49.3 Q 193 -48.6 191.6 -48.2 L 191.6 -48.2 L 191.6 -48.2 Q 190.1 -47.7 188.2 -47.7 L 188.2 -47.7 L 188.2 -47.7 Q 186.4 -47.7 184.6 -48.4 L 184.6 -48.4 L 184.6 -48.4 Q 182.8 -49.1 181.4 -50.4 L 181.4 -50.4 L 181.4 -50.4 Q 180.1 -51.8 179.2 -53.8 L 179.2 -53.8 L 179.2 -53.8 Q 178.4 -55.8 178.4 -58.5 L 178.4 -58.5 L 178.4 -58.5 Q 178.4 -60.5 178.9 -62.1 L 178.9 -62.1 L 178.9 -62.1 Q 179.4 -63.7 180.2 -65 L 180.2 -65 L 180.2 -65 Q 181.1 -66.4 182.2 -67.3 L 182.2 -67.3 L 182.2 -67.3 Q 183.3 -68.3 184.6 -69 L 184.6 -69 L 184.6 -69 Q 185.8 -69.6 187.1 -70 L 187.1 -70 L 187.1 -70 Q 188.4 -70.3 189.6 -70.3 L 189.6 -70.3 L 189.6 -70.3 Q 191.2 -70.3 192.4 -70 L 192.4 -70 L 192.4 -70 Q 193.6 -69.6 194.4 -69 L 194.4 -69 L 194.4 -69 Q 195.2 -68.5 195.5 -67.7 L 195.5 -67.7 L 195.5 -67.7 Q 195.9 -66.9 195.9 -66.1 L 195.9 -66.1 L 195.9 -66.1 Q 195.9 -65.1 195.4 -64.3 L 195.4 -64.3 L 195.4 -64.3 Q 194.8 -63.5 193.8 -62.9 L 193.8 -62.9 Z M 185.1 -59.6 L 189.6 -62.2 L 189.6 -62.2 Q 189.9 -62.4 190.1 -62.6 L 190.1 -62.6 L 190.1 -62.6 Q 190.3 -62.7 190.4 -62.9 L 190.4 -62.9 L 190.4 -62.9 Q 190.5 -63.2 190.6 -63.5 L 190.6 -63.5 L 190.6 -63.5 Q 190.6 -63.8 190.6 -64.3 L 190.6 -64.3 L 190.6 -64.3 Q 190.6 -64.9 190.5 -65.5 L 190.5 -65.5 L 190.5 -65.5 Q 190.4 -66.2 190.1 -66.8 L 190.1 -66.8 L 190.1 -66.8 Q 189.8 -67.3 189.4 -67.7 L 189.4 -67.7 L 189.4 -67.7 Q 189 -68.1 188.4 -68.1 L 188.4 -68.1 L 188.4 -68.1 Q 187.6 -68.1 187 -67.7 L 187 -67.7 L 187 -67.7 Q 186.5 -67.2 186.1 -66.5 L 186.1 -66.5 L 186.1 -66.5 Q 185.8 -65.7 185.6 -64.8 L 185.6 -64.8 L 185.6 -64.8 Q 185.4 -63.9 185.3 -62.9 L 185.3 -62.9 L 185.3 -62.9 Q 185.2 -62 185.1 -61.1 L 185.1 -61.1 L 185.1 -61.1 Q 185.1 -60.2 185.1 -59.6 L 185.1 -59.6 Z M 207 -65.8 L 207 -65.8 L 207 -65.8 Q 207.8 -67 208.7 -68 L 208.7 -68 L 208.7 -68 Q 209.1 -68.5 209.6 -68.9 L 209.6 -68.9 L 209.6 -68.9 Q 210 -69.3 210.5 -69.6 L 210.5 -69.6 L 210.5 -69.6 Q 211 -69.9 211.5 -70.1 L 211.5 -70.1 L 211.5 -70.1 Q 212 -70.3 212.5 -70.3 L 212.5 -70.3 L 212.5 -70.3 Q 213.6 -70.3 214.3 -69.7 L 214.3 -69.7 L 214.3 -69.7 Q 214.9 -69 214.9 -67.8 L 214.9 -67.8 L 214.9 -67.8 Q 214.9 -67.1 214.8 -66.4 L 214.8 -66.4 L 214.8 -66.4 Q 214.6 -65.7 214.3 -64.8 L 214.3 -64.8 L 213.7 -64.8 L 213.7 -64.8 Q 213.6 -65.4 213.1 -65.9 L 213.1 -65.9 L 213.1 -65.9 Q 212.6 -66.3 211.7 -66.3 L 211.7 -66.3 L 211.7 -66.3 Q 211.1 -66.3 210.4 -66.1 L 210.4 -66.1 L 210.4 -66.1 Q 209.8 -65.8 209.2 -65.5 L 209.2 -65.5 L 209.2 -65.5 Q 208.5 -65.1 208 -64.7 L 208 -64.7 L 208 -64.7 Q 207.5 -64.2 207 -63.8 L 207 -63.8 L 207 -49.9 L 207 -49.9 Q 207 -49.6 206.9 -49.2 L 206.9 -49.2 L 206.9 -49.2 Q 206.8 -48.8 206.5 -48.5 L 206.5 -48.5 L 206.5 -48.5 Q 206.2 -48.2 205.5 -47.9 L 205.5 -47.9 L 205.5 -47.9 Q 204.9 -47.7 203.7 -47.7 L 203.7 -47.7 L 203.7 -47.7 Q 202.6 -47.7 201.9 -47.9 L 201.9 -47.9 L 201.9 -47.9 Q 201.3 -48.2 200.9 -48.6 L 200.9 -48.6 L 200.9 -48.6 Q 200.6 -48.9 200.5 -49.3 L 200.5 -49.3 L 200.5 -49.3 Q 200.4 -49.7 200.4 -49.9 L 200.4 -49.9 L 200.4 -66.5 L 200.4 -66.5 Q 200.4 -67.1 200.1 -67.6 L 200.1 -67.6 L 200.1 -67.6 Q 199.8 -68.1 199.1 -68.1 L 199.1 -68.1 L 199.1 -68.1 Q 198.8 -68.1 198.5 -67.9 L 198.5 -67.9 L 198.5 -67.9 Q 198.3 -67.8 198 -67.6 L 198 -67.6 L 197.5 -68.1 L 197.5 -68.1 Q 198 -68.5 198.6 -68.9 L 198.6 -68.9 L 198.6 -68.9 Q 199.2 -69.3 199.9 -69.6 L 199.9 -69.6 L 199.9 -69.6 Q 200.6 -69.9 201.5 -70.1 L 201.5 -70.1 L 201.5 -70.1 Q 202.3 -70.3 203.2 -70.3 L 203.2 -70.3 L 203.2 -70.3 Q 204.1 -70.3 204.8 -70.1 L 204.8 -70.1 L 204.8 -70.1 Q 205.4 -69.8 205.8 -69.4 L 205.8 -69.4 L 205.8 -69.4 Q 206.2 -69 206.5 -68.5 L 206.5 -68.5 L 206.5 -68.5 Q 206.7 -68 206.8 -67.5 L 206.8 -67.5 L 206.8 -67.5 Q 207 -67 207 -66.6 L 207 -66.6 L 207 -66.6 Q 207 -66.1 207 -65.8 Z M 234.7 -66.9 L 234.7 -66.9 L 234.7 -66.9 Q 234.7 -63 234 -59.3 L 234 -59.3 L 234 -59.3 Q 233.2 -55.7 231.9 -52.5 L 231.9 -52.5 L 231.9 -52.5 Q 230.5 -49.3 228.7 -46.6 L 228.7 -46.6 L 228.7 -46.6 Q 226.8 -43.9 224.7 -42.1 L 224.7 -42.1 L 224.7 -42.1 Q 222.5 -40.2 220.1 -39.1 L 220.1 -39.1 L 220.1 -39.1 Q 217.7 -38.1 215.2 -38.1 L 215.2 -38.1 L 215.2 -38.1 Q 213.3 -38.1 212.3 -38.7 L 212.3 -38.7 L 212.3 -38.7 Q 211.2 -39.3 211.2 -40.4 L 211.2 -40.4 L 211.2 -40.4 Q 211.2 -40.8 211.4 -41.2 L 211.4 -41.2 L 211.4 -41.2 Q 211.5 -41.6 211.7 -41.9 L 211.7 -41.9 L 211.7 -41.9 Q 211.9 -42.2 212.2 -42.4 L 212.2 -42.4 L 212.2 -42.4 Q 212.5 -42.5 212.9 -42.5 L 212.9 -42.5 L 212.9 -42.5 Q 213.3 -42.5 213.5 -42.1 L 213.5 -42.1 L 213.5 -42.1 Q 213.8 -41.7 214.1 -41.2 L 214.1 -41.2 L 214.1 -41.2 Q 214.4 -40.8 214.8 -40.4 L 214.8 -40.4 L 214.8 -40.4 Q 215.3 -39.9 216 -39.9 L 216 -39.9 L 216 -39.9 Q 217 -39.9 218 -40.3 L 218 -40.3 L 218 -40.3 Q 219.1 -40.6 220.2 -41.2 L 220.2 -41.2 L 220.2 -41.2 Q 221.2 -41.9 222.3 -42.8 L 222.3 -42.8 L 222.3 -42.8 Q 223.4 -43.6 224.4 -44.7 L 224.4 -44.7 L 224.4 -44.7 Q 223.8 -46.9 223 -49.5 L 223 -49.5 L 223 -49.5 Q 222.2 -52 221.3 -54.6 L 221.3 -54.6 L 221.3 -54.6 Q 220.5 -57.2 219.6 -59.7 L 219.6 -59.7 L 219.6 -59.7 Q 218.6 -62.1 217.8 -63.9 L 217.8 -63.9 L 217.8 -63.9 Q 216.9 -65.8 216.1 -66.9 L 216.1 -66.9 L 216.1 -66.9 Q 215.3 -68.1 214.7 -68.1 L 214.7 -68.1 L 214.7 -68.1 Q 214.3 -68.1 214 -67.9 L 214 -67.9 L 214 -67.9 Q 213.8 -67.8 213.5 -67.6 L 213.5 -67.6 L 213.1 -68.1 L 213.1 -68.1 Q 213.5 -68.5 214 -68.9 L 214 -68.9 L 214 -68.9 Q 214.5 -69.3 215.1 -69.6 L 215.1 -69.6 L 215.1 -69.6 Q 215.7 -69.9 216.6 -70.1 L 216.6 -70.1 L 216.6 -70.1 Q 217.5 -70.3 218.7 -70.3 L 218.7 -70.3 L 218.7 -70.3 Q 220 -70.3 221.1 -69.7 L 221.1 -69.7 L 221.1 -69.7 Q 222.2 -69.1 223.2 -67.5 L 223.2 -67.5 L 223.2 -67.5 Q 223.8 -66.4 224.5 -64.7 L 224.5 -64.7 L 224.5 -64.7 Q 225.3 -63 226 -61 L 226 -61 L 226 -61 Q 226.7 -59 227.5 -56.6 L 227.5 -56.6 L 227.5 -56.6 Q 228.2 -54.2 229 -51.6 L 229 -51.6 L 229 -51.6 Q 230.3 -54.4 231.1 -57.5 L 231.1 -57.5 L 231.1 -57.5 Q 231.9 -60.7 231.9 -64 L 231.9 -64 L 231.9 -64 Q 231.9 -65.1 231.8 -66 L 231.8 -66 L 231.8 -66 Q 231.6 -66.8 231.4 -67.4 L 231.4 -67.4 L 231.4 -67.4 Q 231.2 -68 231.1 -68.4 L 231.1 -68.4 L 231.1 -68.4 Q 230.9 -68.8 230.9 -69.2 L 230.9 -69.2 L 230.9 -69.2 Q 230.9 -69.5 231.2 -69.7 L 231.2 -69.7 L 231.2 -69.7 Q 231.5 -69.9 231.8 -70.1 L 231.8 -70.1 L 231.8 -70.1 Q 232.2 -70.2 232.6 -70.3 L 232.6 -70.3 L 232.6 -70.3 Q 232.9 -70.3 233.2 -70.3 L 233.2 -70.3 L 233.2 -70.3 Q 233.8 -70.3 234.1 -70.1 L 234.1 -70.1 L 234.1 -70.1 Q 234.4 -69.8 234.5 -69.4 L 234.5 -69.4 L 234.5 -69.4 Q 234.7 -69 234.7 -68.3 L 234.7 -68.3 L 234.7 -68.3 Q 234.7 -67.7 234.7 -66.9 Z" fill="url(#editing-gradient-gradient)"></path></g></g><style>text {
  font-size: 64px;
  font-family: Arial Black;
  dominant-baseline: central;
  text-anchor: middle;
}</style></svg>